<?xml version="1.0" standalone="no"?>
<!DOCTYPE svg PUBLIC "-//W3C//DTD SVG 1.1//EN" "http://www.w3.org/Graphics/SVG/1.1/DTD/svg11.dtd" >
<svg xmlns="http://www.w3.org/2000/svg">
<defs>
  <font id="icons-fireArt" horiz-adv-x="256">
    <font-face font-family="icons-fireArt"
      units-per-em="256" ascent="256"
      descent="0" />
    <missing-glyph horiz-adv-x="0" />
    <glyph glyph-name="activity"
      unicode="&#xEA01;"
      horiz-adv-x="256" d="M91.843 233.354C87.154 231.439 87.47 232.213 70.381 180.75L56.518 139L38.727 139C19.577 139 15.679 138.236 12.631 133.883C10.36 130.641 10.561 124.828 13.054 121.659C16.417 117.384 20.492 116.817 45.334 117.173L68.168 117.5L70.968 120.637C73.093 123.016 76.39 131.648 84.623 156.387C90.593 174.324 95.709 189 95.993 189C96.277 189 108.551 152.867 123.268 108.704C137.985 64.541 150.754 27.368 151.644 26.098C153.734 23.113 158.753 21.039 162.261 21.71C167.704 22.75 169.291 26.348 184.653 72.471L199.483 117L217.274 117C236.675 117 240.289 117.74 243.296 122.328C247.321 128.472 243.386 137.092 235.921 138.483C234.039 138.833 222.45 138.981 210.166 138.81L187.832 138.5L185.031 135.363C182.907 132.984 179.61 124.351 171.377 99.613C165.407 81.676 160.291 67 160.007 67C159.723 67 147.401 103.279 132.625 147.619C104.463 232.127 104.09 233.06 98 234.328C96.625 234.614 93.854 234.176 91.843 233.354" />
    <glyph glyph-name="airplay"
      unicode="&#xEA02;"
      horiz-adv-x="256" d="M36 233.613C32.975 232.942 29.123 231.663 27.44 230.769C22.817 228.316 16.405 221.458 13.813 216.195L11.5 211.5L11.5 149L11.5 86.5L13.863 82C17.307 75.442 25.1 68.481 31.812 65.967C36.554 64.191 39.192 63.892 47.672 64.168C56.799 64.466 58.107 64.747 60.407 66.91C65.012 71.241 64.775 78.337 59.873 82.904C57.985 84.663 56.36 85 49.779 85C45.263 85 40.493 85.603 38.534 86.421C31.855 89.212 32 87.825 32 149.049C32 209.08 32.022 209.322 37.595 211.861C39.403 212.685 64.418 213 128.097 213C224.965 213 220.662 213.278 222.892 206.881C223.651 204.703 224 186.402 224 148.801C224 88.115 224.165 89.73 217.643 86.635C215.453 85.595 211.594 85 207.049 85C198.228 85 194.591 83.32 193.005 78.514C191.513 73.995 192.443 69.872 195.63 66.876C197.886 64.754 199.244 64.465 208.328 64.168C216.787 63.892 219.451 64.193 224.147 65.952C231.269 68.619 237.717 74.254 241.534 81.145L244.5 86.5L244.5 149L244.5 211.5L242.188 216.193C237.443 225.826 229.312 231.917 218.535 233.909C209.785 235.526 43.412 235.256 36 233.613M118.853 101.25C115.227 97.354 79.419 54.537 67.229 39.522C62.521 33.723 63.199 27.141 68.904 23.264C71.292 21.641 75.847 21.477 125.771 21.217C162.468 21.026 181.345 21.285 184.067 22.018C190.428 23.731 193.777 30.807 190.832 36.316C189.439 38.922 136.274 102.963 134.046 104.718C133.196 105.388 130.424 105.951 127.887 105.968C123.654 105.997 122.909 105.609 118.853 101.25M143.348 61L157.912 43.5L142.956 43.224C134.73 43.072 121.274 43.072 113.054 43.224L98.108 43.5L112.804 61.226C120.887 70.975 127.789 78.85 128.142 78.726C128.496 78.602 135.338 70.625 143.348 61" />
    <glyph glyph-name="alert-circle"
      unicode="&#xEA03;"
      horiz-adv-x="256" d="M105 242.978C49.546 231.09 11 183.942 11 128C11 78.191 41.952 34.358 89 17.538C113.657 8.724 142.343 8.724 167 17.538C214.048 34.358 245 78.191 245 128C245 184.343 206.09 231.544 150.14 243.071C137.824 245.609 117.073 245.566 105 242.978M140.549 222.93C154.599 220.976 170.711 214.965 181.5 207.654C189.33 202.348 202.621 189.08 207.7 181.5C219.565 163.792 225.654 138.967 223.221 118.225C221.385 102.577 215.608 86.302 207.7 74.5C202.621 66.92 189.33 53.652 181.5 48.346C169.833 40.439 153.498 34.624 137.775 32.779C117.033 30.346 92.208 36.435 74.5 48.3C66.92 53.379 53.652 66.67 48.346 74.5C36.486 92.001 30.34 116.983 32.779 137.775C34.624 153.498 40.439 169.833 48.346 181.5C53.652 189.33 66.92 202.621 74.5 207.7C93.19 220.223 118.331 226.02 140.549 222.93M120.766 178.084L117.5 175.168L117.19 152.334C117.02 139.775 117.144 128.088 117.465 126.362C118.186 122.486 122.192 118.336 126.026 117.494C130.173 116.584 135.495 119.415 137.473 123.585C138.866 126.519 139.057 130.496 138.8 151.091L138.5 175.167L135.234 178.084C130.718 182.117 125.282 182.117 120.766 178.084M122.353 94.074C118.782 91.896 116.565 86.582 117.565 82.598C117.924 81.166 119.554 78.87 121.186 77.497C130.23 69.887 143.28 80.81 137.047 90.775C133.706 96.117 127.857 97.43 122.353 94.074" />
    <glyph glyph-name="alert-octagon"
      unicode="&#xEA04;"
      horiz-adv-x="256" d="M77.876 243.243C74.133 240.756 17.35 184.282 13.886 179.6L11 175.7L11 127.845L11 79.99L20.762 69.745C44.473 44.861 74.399 14.917 77.43 13.044C80.638 11.061 82.144 11 128.218 11L175.7 11L179.6 13.886C184.282 17.35 240.756 74.133 243.243 77.876C244.84 80.279 244.987 84.508 244.993 128.027C244.999 170.356 244.821 175.825 243.365 178.027C240.985 181.625 184.208 238.678 179.6 242.102L175.7 245L128.1 244.993C84.512 244.987 80.279 244.84 77.876 243.243M195.757 195.744L224 167.487L224 128L224 88.513L195.757 60.256L167.513 32L128 32L88.487 32L60.243 60.256L32 88.513L32 128L32 167.487L60.243 195.744L88.487 224L128 224L167.513 224L195.757 195.744M120.766 178.084L117.5 175.168L117.19 152.334C117.02 139.775 117.144 128.088 117.465 126.362C118.186 122.486 122.192 118.336 126.026 117.494C130.173 116.584 135.495 119.415 137.473 123.585C138.866 126.519 139.057 130.496 138.8 151.091L138.5 175.167L135.234 178.084C130.718 182.117 125.282 182.117 120.766 178.084M122.353 94.074C118.782 91.896 116.565 86.582 117.565 82.598C117.924 81.166 119.554 78.87 121.186 77.497C130.23 69.887 143.28 80.81 137.047 90.775C133.706 96.117 127.857 97.43 122.353 94.074" />
    <glyph glyph-name="alert-triangle"
      unicode="&#xEA05;"
      horiz-adv-x="256" d="M118.5 234.245C112.166 231.95 105.661 227.213 102.114 222.313C95.366 212.991 9.382 67.929 7.682 63C2.566 48.163 10.61 30.689 25.783 23.679L30.5 21.5L123.5 21.206C219.725 20.901 225.401 21.097 232.898 24.972C237.604 27.406 244.26 34.388 247.055 39.822C249.897 45.35 250.683 55.778 248.731 62.052C247.441 66.2 162.031 210.561 154.724 220.944C150.178 227.405 146.2 230.696 140.141 233.008C132.304 235.999 124.563 236.442 118.5 234.245M134.405 211.75C135.789 210.513 157.67 174.865 183.031 132.533C226.086 60.667 229.101 55.332 228.527 52.033C228.167 49.96 226.684 47.363 224.941 45.75L221.968 43L127.852 43L33.736 43L30.368 46.571C28.179 48.893 27 51.133 27 52.972C27 56.246 117.421 208.017 121.595 211.75C123.291 213.266 125.38 214 128 214C130.62 214 132.709 213.266 134.405 211.75M123.321 169.387C117.354 166.444 116.863 163.839 117.2 136.909L117.5 112.833L120.766 109.916C125.282 105.883 130.718 105.883 135.234 109.916L138.5 112.833L138.8 136.909C139.139 164.022 138.658 166.511 132.522 169.423C128.421 171.369 127.331 171.364 123.321 169.387M121.15 82.473C117.363 79.286 116.433 75.293 118.388 70.614C121.633 62.848 132.025 61.937 136.798 69C143.537 78.973 130.417 90.27 121.15 82.473" />
    <glyph glyph-name="align-center"
      unicode="&#xEA06;"
      horiz-adv-x="256" d="M27.321 201.387C24.404 199.948 21 194.893 21 192C21 191.341 21.71 189.307 22.577 187.478C25.814 180.658 20.249 181 128 181C235.751 181 230.186 180.658 233.423 187.478C235.383 191.61 235.383 192.39 233.423 196.522C230.185 203.344 235.774 203.002 127.849 202.977C41.495 202.957 30.141 202.777 27.321 201.387M58.353 158.074C54.782 155.896 52.565 150.582 53.565 146.598C53.924 145.166 55.554 142.87 57.186 141.497L60.153 139L128 139L195.847 139L198.85 141.527C202.62 144.7 203.566 148.708 201.635 153.33C198.742 160.254 201.551 160 127.8 159.996C64.198 159.993 61.372 159.914 58.353 158.074M25.15 114.473C21.38 111.3 20.434 107.292 22.365 102.67C25.319 95.6 18.979 96 128 96C237.021 96 230.681 95.6 233.635 102.67C235.566 107.292 234.62 111.3 230.85 114.473L227.847 117L128 117L28.153 117L25.15 114.473M59.321 73.387C56.404 71.948 53 66.893 53 64C53 63.341 53.71 61.307 54.577 59.478C57.738 52.818 55.674 53 128 53C200.326 53 198.262 52.818 201.423 59.478C203.383 63.61 203.383 64.39 201.423 68.522C198.26 75.186 200.348 75.002 127.849 74.977C70.555 74.957 62.108 74.761 59.321 73.387" />
    <glyph glyph-name="align-justify"
      unicode="&#xEA07;"
      horiz-adv-x="256" d="M27.321 201.387C24.404 199.948 21 194.893 21 192C21 191.341 21.71 189.307 22.577 187.478C25.814 180.658 20.249 181 128 181C235.751 181 230.186 180.658 233.423 187.478C235.383 191.61 235.383 192.39 233.423 196.522C230.185 203.344 235.774 203.002 127.849 202.977C41.495 202.957 30.141 202.777 27.321 201.387M26.353 158.074C22.782 155.896 20.565 150.582 21.565 146.598C21.924 145.166 23.554 142.87 25.186 141.497L28.153 139L128 139L227.847 139L230.85 141.527C234.62 144.7 235.566 148.708 233.635 153.33C230.681 160.401 237.044 160 127.8 159.996C32.649 159.993 29.399 159.931 26.353 158.074M25.15 114.473C21.38 111.3 20.434 107.292 22.365 102.67C25.319 95.6 18.979 96 128 96C237.021 96 230.681 95.6 233.635 102.67C235.566 107.292 234.62 111.3 230.85 114.473L227.847 117L128 117L28.153 117L25.15 114.473M27.321 73.387C24.404 71.948 21 66.893 21 64C21 63.341 21.71 61.307 22.577 59.478C25.814 52.658 20.249 53 128 53C235.751 53 230.186 52.658 233.423 59.478C235.383 63.61 235.383 64.39 233.423 68.522C230.185 75.344 235.774 75.002 127.849 74.977C41.495 74.957 30.141 74.777 27.321 73.387" />
    <glyph glyph-name="align-left"
      unicode="&#xEA08;"
      horiz-adv-x="256" d="M27.321 201.387C24.404 199.948 21 194.893 21 192C21 191.341 21.71 189.307 22.577 187.478C25.814 180.658 20.249 181 128 181C235.751 181 230.186 180.658 233.423 187.478C235.383 191.61 235.383 192.39 233.423 196.522C230.185 203.344 235.774 203.002 127.849 202.977C41.495 202.957 30.141 202.777 27.321 201.387M26.353 158.074C22.782 155.896 20.565 150.582 21.565 146.598C21.924 145.166 23.554 142.87 25.186 141.497L28.153 139L106.03 139C164.278 139 184.567 139.301 186.528 140.195C189.701 141.64 192 145.781 192 150.05C192 152.299 191.027 154.173 188.6 156.6L185.2 160L107.35 159.996C32.361 159.993 29.384 159.922 26.353 158.074M25.15 114.473C21.38 111.3 20.434 107.292 22.365 102.67C25.319 95.6 18.979 96 128 96C237.021 96 230.681 95.6 233.635 102.67C235.566 107.292 234.62 111.3 230.85 114.473L227.847 117L128 117L28.153 117L25.15 114.473M27.321 73.387C24.404 71.948 21 66.893 21 64C21 63.341 21.71 61.307 22.577 59.478C25.769 52.752 22.563 53 106.433 53C189.3 53 187.326 52.862 190.434 58.872C192.412 62.698 192.412 65.302 190.434 69.128C187.324 75.141 189.322 75.002 106.282 74.977C39.514 74.957 30.122 74.768 27.321 73.387" />
    <glyph glyph-name="align-right"
      unicode="&#xEA09;"
      horiz-adv-x="256" d="M27.321 201.387C24.404 199.948 21 194.893 21 192C21 191.341 21.71 189.307 22.577 187.478C25.814 180.658 20.249 181 128 181C235.751 181 230.186 180.658 233.423 187.478C235.383 191.61 235.383 192.39 233.423 196.522C230.185 203.344 235.774 203.002 127.849 202.977C41.495 202.957 30.141 202.777 27.321 201.387M67.4 156.6C64.973 154.173 64 152.299 64 150.05C64 145.781 66.299 141.64 69.472 140.195C71.433 139.301 91.722 139 149.97 139L227.847 139L230.85 141.527C234.62 144.7 235.566 148.708 233.635 153.33C230.715 160.319 234.784 160 148.45 160L70.8 160L67.4 156.6M25.15 114.473C21.38 111.3 20.434 107.292 22.365 102.67C25.319 95.6 18.979 96 128 96C237.021 96 230.681 95.6 233.635 102.67C235.566 107.292 234.62 111.3 230.85 114.473L227.847 117L128 117L28.153 117L25.15 114.473M70.315 73.536C66.983 72.087 64 67.582 64 64C64 60.313 67.017 55.891 70.534 54.421C73.372 53.235 86.465 53 149.567 53C233.437 53 230.231 52.752 233.423 59.478C234.29 61.307 235 63.341 235 64C235 64.659 234.29 66.693 233.423 68.522C230.229 75.253 233.471 75.004 149.349 74.961C86.981 74.929 72.934 74.675 70.315 73.536" />
    <glyph glyph-name="anchor"
      unicode="&#xEA0A;"
      horiz-adv-x="256" d="M115.748 243.514C105.719 240.754 93.964 230.588 89.509 220.821C83.496 207.639 84.42 191.613 91.871 179.865C96.526 172.525 110.423 162 115.46 162C116.831 162 117 154.897 117 97.386L117 32.773L112.319 33.475C101.092 35.158 84.274 41.751 74.5 48.3C66.92 53.379 53.652 66.67 48.346 74.5C41.793 84.17 35.171 101.011 33.475 112.319L32.773 117L42.636 117.006C55.263 117.013 59.528 118.179 62.048 122.311C64.511 126.35 64.511 129.65 62.048 133.689C59.333 138.141 55.292 138.988 36.718 138.994C13.503 139.003 11 137.484 11 123.388C11 97.708 23.485 68.124 42.987 47.589C79.385 9.263 135.249 -0.051 182.464 24.332C203.304 35.095 222.193 54.312 232.758 75.5C243.093 96.226 248.357 126.477 242.95 134.071C239.833 138.447 235.556 139.218 216.484 138.838C202.28 138.555 199.075 138.211 196.904 136.736C190.552 132.419 190.552 123.55 196.904 119.285C198.907 117.94 202.204 117.456 211.347 117.163L223.195 116.784L222.509 112.211C220.841 101.091 214.221 84.232 207.7 74.5C202.621 66.92 189.33 53.652 181.5 48.346C171.83 41.793 154.989 35.171 143.681 33.475L139 32.773L139 97.386C139 154.777 139.171 162 140.533 162C143.853 162 152.685 167.525 158.231 173.071C170.861 185.701 174.066 204.213 166.496 220.81C162.06 230.536 150.782 240.342 140.416 243.487C134.472 245.29 122.252 245.303 115.748 243.514M134.277 222.94C136.355 222.363 139.644 220.496 141.586 218.79C152.546 209.167 151.39 192.643 139.217 184.922C135.32 182.451 133.597 182.003 128.054 182.016C119.818 182.037 114.993 184.582 110.338 191.359C107.436 195.583 107 197.028 107 202.413C107 207.517 107.502 209.392 109.849 213.054C113.468 218.703 115.666 220.624 120.566 222.418C125.36 224.174 129.294 224.324 134.277 222.94" />
    <glyph glyph-name="aperture"
      unicode="&#xEA0B;"
      horiz-adv-x="256" d="M105 242.978C49.52 231.085 11 183.969 11 128C11 78.161 41.923 34.368 89 17.538C113.657 8.724 142.343 8.724 167 17.538C234.198 41.562 264.709 119.011 231.854 182.164C215.491 213.616 185.842 235.716 150.14 243.071C137.824 245.609 117.073 245.566 105 242.978M119.934 220.836C116.417 214.143 80.549 152.315 79.556 151.233C78.65 150.244 75.811 154.425 66.657 170.233L54.921 190.5L61.803 197.106C73.588 208.418 84.962 214.955 101.5 219.923C107.72 221.791 119.951 223.988 120.831 223.395C121.013 223.272 120.61 222.12 119.934 220.836M154.645 219.904C170.108 215.175 179.366 210.125 190.876 200.141C197.4 194.482 207 183.65 207 181.948C207 181.365 190.584 181 164.417 181C140.996 181 121.983 181.359 122.167 181.797C124.299 186.896 145.552 222 146.506 222C147.212 222 150.874 221.057 154.645 219.904M55.537 146.75C62.572 134.512 72.001 118.2 76.489 110.5L84.649 96.5L61.644 96.231C48.99 96.083 38.275 96.325 37.833 96.767C37.39 97.21 36.057 101.156 34.87 105.536C31.836 116.732 31.783 139.103 34.763 150C37.423 159.724 40.929 169 41.944 169C42.384 169 48.501 158.988 55.537 146.75M155.737 143.928L164.975 127.887L155.751 111.943L146.527 96L128.013 96.005L109.5 96.009L100.263 112.062L91.026 128.114L100.25 144.057L109.473 160L127.987 159.984L146.5 159.969L155.737 143.928M219.096 157.25C223.953 144.489 224.981 119.774 221.229 106C218.578 96.271 215.073 87 214.046 87C213.601 87 208.508 95.213 202.729 105.25C196.95 115.287 187.466 131.713 181.653 141.75L171.084 160L194.567 160L218.05 160L219.096 157.25M189.538 85.432L201.107 65.5L193.857 58.654C189.87 54.888 184.108 50.114 181.054 48.044C171.003 41.232 153.948 34.861 141.204 33.159C135.653 32.418 134.98 32.507 135.513 33.909C136.234 35.805 174.866 102.934 176.296 104.774C176.84 105.475 177.439 105.894 177.627 105.706C177.815 105.518 183.175 96.395 189.538 85.432M133.833 74.203C131.701 69.104 110.448 34 109.494 34C107.197 34 94.667 38.12 87.5 41.232C79.614 44.657 73.95 48.261 66.175 54.802C60.438 59.629 49 72.431 49 74.026C49 74.643 64.609 75 91.583 75C115.004 75 134.017 74.641 133.833 74.203" />
    <glyph glyph-name="archive"
      unicode="&#xEA0C;"
      horiz-adv-x="256" d="M9 234.356C0.083 231.369 0 231.029 0 197.615C0 181.531 0.424 168.014 0.975 166.566C2.559 162.401 7.581 160.008 14.75 160.004L21 160L21.002 95.75C21.003 23.897 20.767 26.365 28 22.752C31.259 21.123 38.118 21.003 127.73 21.002C236.055 21 230.431 20.622 233.422 28.098C234.802 31.545 235 40.084 235 96.02L235 160L241.25 160.004C248.419 160.008 253.441 162.401 255.025 166.566C256.4580000000001 170.334 256.299 225.25 254.846 228.439C254.211 229.832 252.524 231.766 251.096 232.736C248.655 234.394 241.374 234.511 129.5 234.679C64.05 234.778 9.825 234.633 9 234.356M234.775 197.25L234.5 181.5L128 181.5L21.5 181.5L21.225 197.25L20.949 213L128 213L235.051 213L234.775 197.25M213 101.5L213 43L128 43L43 43L43 101.5L43 160L128 160L213 160L213 101.5M102.315 137.536C98.983 136.087 96 131.582 96 128C96 124.313 99.017 119.891 102.534 118.421C105.125 117.339 111.193 117 128 117C144.807 117 150.875 117.339 153.466 118.421C156.983 119.891 160 124.313 160 128C160 131.687 156.983 136.109 153.466 137.579C148.655 139.589 106.954 139.554 102.315 137.536" />
    <glyph glyph-name="arrow-down"
      unicode="&#xEA0D;"
      horiz-adv-x="256" d="M120.766 210.082L117.5 207.165L117.228 143.392L116.956 79.62L87.728 108.677C65.644 130.632 57.767 137.868 55.5 138.277C51.752 138.953 46.772 136.94 44.631 133.883C42.895 131.405 42.471 125.382 43.877 123.166C44.342 122.432 62.424 104.094 84.059 82.416L123.396 43L128 43L132.604 43L171.941 82.416C193.576 104.094 211.658 122.432 212.123 123.166C213.536 125.395 213.101 130.916 211.296 133.672C209.146 136.952 204.393 138.979 200.5 138.277C198.233 137.868 190.356 130.632 168.272 108.677L139.044 79.62L138.772 143.392L138.5 207.165L135.234 210.082C130.717 214.118 125.283 214.118 120.766 210.082" />
    <glyph glyph-name="arrow-down-circle"
      unicode="&#xEA0E;"
      horiz-adv-x="256" d="M105 242.978C49.546 231.09 11 183.942 11 128C11 78.191 41.952 34.358 89 17.538C113.657 8.724 142.343 8.724 167 17.538C214.048 34.358 245 78.191 245 128C245 184.343 206.09 231.544 150.14 243.071C137.824 245.609 117.073 245.566 105 242.978M140.549 222.93C154.599 220.976 170.711 214.965 181.5 207.654C189.33 202.348 202.621 189.08 207.7 181.5C219.565 163.792 225.654 138.967 223.221 118.225C221.385 102.577 215.608 86.302 207.7 74.5C202.621 66.92 189.33 53.652 181.5 48.346C169.833 40.439 153.498 34.624 137.775 32.779C117.033 30.346 92.208 36.435 74.5 48.3C66.92 53.379 53.652 66.67 48.346 74.5C36.486 92.001 30.34 116.983 32.779 137.775C34.624 153.498 40.439 169.833 48.346 181.5C53.652 189.33 66.92 202.621 74.5 207.7C93.19 220.223 118.331 226.02 140.549 222.93M120.766 178.083L117.5 175.166L117.209 143.451L116.918 111.735L103.709 124.709C89.629 138.54 87.186 139.94 81.381 137.515C77.18 135.76 75 132.371 75 127.597C75 123.778 75.796 122.834 97.75 100.606C110.263 87.937 121.175 77.008 122 76.318C123.941 74.695 132.059 74.695 134 76.318C134.825 77.008 145.738 87.937 158.25 100.606C179.701 122.325 181 123.852 181 127.355C181 131.978 178.527 135.882 174.545 137.546C168.821 139.937 166.335 138.504 152.291 124.709L139.082 111.735L138.791 143.451L138.5 175.166L135.234 178.083C132.789 180.267 130.971 181 128 181C125.029 181 123.211 180.267 120.766 178.083" />
    <glyph glyph-name="arrow-down-left"
      unicode="&#xEA0F;"
      horiz-adv-x="256" d="M70.5 191.055C69.4 190.604 67.6 189.236 66.5 188.014C64.557 185.854 64.492 184.182 64.226 129.162C64.035 89.768 64.285 71.727 65.048 69.885C65.651 68.429 67.574 66.484 69.322 65.564C72.205 64.047 77.759 63.92 129.17 64.196L185.84 64.5L188.405 66.91C193.012 71.239 192.776 78.336 187.873 82.904C185.662 84.964 184.891 85 143.066 85L100.508 85L145.15 129.75C169.702 154.363 190.288 175.483 190.896 176.684C194.952 184.707 186.646 194.125 177.837 191.491C176.552 191.107 155.137 170.483 130.25 145.661L85 100.53L85 142.8C85 189.392 85.086 188.729 78.785 190.925C75.22 192.168 73.294 192.198 70.5 191.055" />
    <glyph glyph-name="arrow-down-right"
      unicode="&#xEA10;"
      horiz-adv-x="256" d="M70.388 191.02C65.165 188.91 62.534 181.769 65.104 176.684C65.712 175.483 86.298 154.363 110.85 129.75L155.492 85L113.793 85C84.741 85 71.336 84.655 69.595 83.861C66.224 82.325 63.647 76.697 64.422 72.563C64.757 70.779 66.185 68.235 67.595 66.91L70.16 64.5L127.656 64.226L185.152 63.952L188.6 67.4L192.048 70.848L191.774 128.344L191.5 185.84L189.124 188.368C186.128 191.557 182.006 192.487 177.486 190.995C170.993 188.853 171 188.903 171 142.304L171 100.508L126.25 145.15C101.638 169.702 80.517 190.288 79.316 190.896C76.773 192.181 73.379 192.228 70.388 191.02" />
    <glyph glyph-name="arrow-left"
      unicode="&#xEA11;"
      horiz-adv-x="256" d="M123.166 212.123C122.432 211.658 104.094 193.576 82.416 171.941L43 132.604L43 128L43 123.396L82.416 84.059C104.094 62.424 122.432 44.342 123.166 43.877C125.395 42.464 130.916 42.899 133.672 44.704C136.952 46.854 138.979 51.607 138.277 55.5C137.868 57.767 130.632 65.644 108.677 87.728L79.62 116.956L143.392 117.228L207.165 117.5L210.082 120.766C214.118 125.283 214.118 130.717 210.082 135.234L207.165 138.5L143.392 138.772L79.62 139.044L108.677 168.272C130.571 190.293 137.871 198.24 138.286 200.5C138.933 204.028 136.667 209.42 133.647 211.535C131.366 213.132 125.295 213.473 123.166 212.123" />
    <glyph glyph-name="arrow-left-circle"
      unicode="&#xEA12;"
      horiz-adv-x="256" d="M105 242.978C49.546 231.09 11 183.942 11 128C11 78.191 41.952 34.358 89 17.538C113.657 8.724 142.343 8.724 167 17.538C214.048 34.358 245 78.191 245 128C245 184.343 206.09 231.544 150.14 243.071C137.824 245.609 117.073 245.566 105 242.978M140.549 222.93C154.599 220.976 170.711 214.965 181.5 207.654C189.33 202.348 202.621 189.08 207.7 181.5C219.565 163.792 225.654 138.967 223.221 118.225C221.385 102.577 215.608 86.302 207.7 74.5C202.621 66.92 189.33 53.652 181.5 48.346C169.833 40.439 153.498 34.624 137.775 32.779C117.033 30.346 92.208 36.435 74.5 48.3C66.92 53.379 53.652 66.67 48.346 74.5C36.486 92.001 30.34 116.983 32.779 137.775C34.624 153.498 40.439 169.833 48.346 181.5C53.652 189.33 66.92 202.621 74.5 207.7C93.19 220.223 118.331 226.02 140.549 222.93M100.606 158.25C87.937 145.737 77.008 134.825 76.318 134C74.695 132.059 74.695 123.941 76.318 122C77.008 121.175 87.937 110.262 100.606 97.75C122.325 76.299 123.852 75 127.355 75C131.978 75 135.882 77.473 137.546 81.455C139.937 87.179 138.504 89.665 124.709 103.709L111.735 116.918L143.451 117.209L175.166 117.5L178.083 120.766C182.117 125.282 182.117 130.718 178.083 135.234L175.166 138.5L143.451 138.791L111.735 139.082L124.709 152.291C138.738 166.574 140.051 168.922 137.288 174.785C135.218 179.174 132.372 181 127.597 181C123.778 181 122.834 180.204 100.606 158.25" />
    <glyph glyph-name="arrow-right"
      unicode="&#xEA13;"
      horiz-adv-x="256" d="M122.353 211.535C119.333 209.42 117.067 204.028 117.714 200.5C118.129 198.24 125.429 190.293 147.323 168.272L176.38 139.044L112.608 138.772L48.835 138.5L45.918 135.234C43.733 132.789 43 130.972 43 128C43 125.028 43.733 123.211 45.918 120.766L48.835 117.5L112.608 117.228L176.38 116.956L147.323 87.728C125.368 65.644 118.132 57.767 117.723 55.5C117.021 51.607 119.048 46.854 122.328 44.704C125.084 42.899 130.605 42.464 132.834 43.877C133.568 44.342 151.906 62.424 173.584 84.059L213 123.396L213 128L213 132.604L173.584 171.941C151.906 193.576 133.568 211.658 132.834 212.123C130.705 213.473 124.634 213.132 122.353 211.535" />
    <glyph glyph-name="arrow-right-circle"
      unicode="&#xEA14;"
      horiz-adv-x="256" d="M105 242.978C49.546 231.09 11 183.942 11 128C11 78.191 41.952 34.358 89 17.538C113.657 8.724 142.343 8.724 167 17.538C214.048 34.358 245 78.191 245 128C245 184.343 206.09 231.544 150.14 243.071C137.824 245.609 117.073 245.566 105 242.978M140.549 222.93C154.599 220.976 170.711 214.965 181.5 207.654C189.33 202.348 202.621 189.08 207.7 181.5C219.565 163.792 225.654 138.967 223.221 118.225C221.385 102.577 215.608 86.302 207.7 74.5C202.621 66.92 189.33 53.652 181.5 48.346C169.833 40.439 153.498 34.624 137.775 32.779C117.033 30.346 92.208 36.435 74.5 48.3C66.92 53.379 53.652 66.67 48.346 74.5C36.486 92.001 30.34 116.983 32.779 137.775C34.624 153.498 40.439 169.833 48.346 181.5C53.652 189.33 66.92 202.621 74.5 207.7C93.19 220.223 118.331 226.02 140.549 222.93M122.353 179.535C119.31 177.403 117.063 172.028 117.74 168.5C118.143 166.401 122.212 161.534 131.291 152.291L144.265 139.082L112.549 138.791L80.834 138.5L77.917 135.234C73.883 130.718 73.883 125.282 77.917 120.766L80.834 117.5L112.549 117.209L144.265 116.918L131.291 103.709C117.496 89.665 116.063 87.179 118.454 81.455C120.118 77.473 124.022 75 128.645 75C132.148 75 133.675 76.299 155.394 97.75C168.063 110.262 178.992 121.175 179.682 122C181.305 123.941 181.305 132.059 179.682 134C178.992 134.825 168.063 145.737 155.394 158.25C133.166 180.204 132.222 181 128.403 181C126.226 181 123.504 180.341 122.353 179.535" />
    <glyph glyph-name="arrow-up"
      unicode="&#xEA15;"
      horiz-adv-x="256" d="M84.059 173.584C62.424 151.906 44.342 133.568 43.877 132.834C42.471 130.618 42.895 124.595 44.631 122.117C46.772 119.06 51.752 117.047 55.5 117.723C57.767 118.132 65.644 125.368 87.728 147.323L116.956 176.38L117.228 112.608L117.5 48.835L120.766 45.918C123.211 43.733 125.028 43 128 43C130.972 43 132.789 43.733 135.234 45.918L138.5 48.835L138.772 112.608L139.044 176.38L168.272 147.323C190.356 125.368 198.233 118.132 200.5 117.723C204.393 117.021 209.146 119.048 211.296 122.328C213.101 125.084 213.536 130.605 212.123 132.834C211.658 133.568 193.576 151.906 171.941 173.584L132.604 213L128 213L123.396 213L84.059 173.584" />
    <glyph glyph-name="arrow-up-circle"
      unicode="&#xEA16;"
      horiz-adv-x="256" d="M105 242.978C49.546 231.09 11 183.942 11 128C11 78.191 41.952 34.358 89 17.538C113.657 8.724 142.343 8.724 167 17.538C214.048 34.358 245 78.191 245 128C245 184.343 206.09 231.544 150.14 243.071C137.824 245.609 117.073 245.566 105 242.978M140.549 222.93C154.599 220.976 170.711 214.965 181.5 207.654C189.33 202.348 202.621 189.08 207.7 181.5C219.565 163.792 225.654 138.967 223.221 118.225C221.385 102.577 215.608 86.302 207.7 74.5C202.621 66.92 189.33 53.652 181.5 48.346C169.833 40.439 153.498 34.624 137.775 32.779C117.033 30.346 92.208 36.435 74.5 48.3C66.92 53.379 53.652 66.67 48.346 74.5C36.486 92.001 30.34 116.983 32.779 137.775C34.624 153.498 40.439 169.833 48.346 181.5C53.652 189.33 66.92 202.621 74.5 207.7C93.19 220.223 118.331 226.02 140.549 222.93M122 179.682C121.175 178.992 110.263 168.063 97.75 155.394C75.796 133.166 75 132.222 75 128.403C75 123.629 77.18 120.24 81.381 118.485C87.186 116.06 89.629 117.46 103.709 131.291L116.918 144.265L117.209 112.549L117.5 80.834L120.766 77.917C123.211 75.733 125.029 75 128 75C130.971 75 132.789 75.733 135.234 77.917L138.5 80.834L138.791 112.549L139.082 144.265L152.291 131.291C166.335 117.496 168.821 116.063 174.545 118.454C178.527 120.118 181 124.022 181 128.645C181 132.148 179.701 133.675 158.25 155.394C145.738 168.063 134.825 178.992 134 179.682C133.175 180.372 130.475 180.936 128 180.936C125.525 180.936 122.825 180.372 122 179.682" />
    <glyph glyph-name="arrow-up-left"
      unicode="&#xEA17;"
      horiz-adv-x="256" d="M69.349 190.836C68.166 190.257 66.454 188.369 65.545 186.641C64.053 183.806 63.921 177.977 64.196 126.83L64.5 70.16L66.91 67.595C68.235 66.185 70.779 64.757 72.563 64.422C76.697 63.647 82.325 66.224 83.861 69.595C84.655 71.336 85 84.741 85 113.793L85 155.492L129.75 110.85C154.363 86.298 175.483 65.712 176.684 65.104C184.708 61.047 194.141 69.37 191.484 78.163C191.095 79.448 170.476 100.863 145.664 125.75L100.55 171L142.325 171C188.901 171 188.853 170.994 190.995 177.486C192.487 182.006 191.557 186.128 188.368 189.124L185.84 191.5L128.67 191.695C90.252 191.826 70.794 191.545 69.349 190.836" />
    <glyph glyph-name="arrow-up-right"
      unicode="&#xEA18;"
      horiz-adv-x="256" d="M71 191.294C65.696 189.355 63.078 183.325 65.005 177.486C67.147 170.994 67.099 171 113.675 171L155.45 171L110.336 125.75C85.524 100.863 64.905 79.448 64.516 78.163C61.859 69.37 71.292 61.047 79.316 65.104C80.517 65.712 101.637 86.298 126.25 110.85L171 155.492L171 112.882L171 70.273L173.601 67.672C175.032 66.241 177.096 64.787 178.188 64.44C181.463 63.401 186.525 64.866 189.09 67.595L191.5 70.16L191.804 126.83C192.079 177.911 191.946 183.809 190.46 186.632C189.554 188.355 187.708 190.268 186.359 190.882C183.826 192.036 74.102 192.428 71 191.294" />
    <glyph glyph-name="at-sign"
      unicode="&#xEA19;"
      horiz-adv-x="256" d="M105 242.978C49.546 231.09 11 183.942 11 128C11 78.191 41.952 34.358 89 17.538C112.794 9.032 140.438 8.689 164.727 16.6C178.267 21.01 199.407 33.154 202.01 38.018C205.128 43.845 201.01 52.345 194.474 53.571C190.828 54.255 190.094 53.92 174.844 44.616C170.633 42.047 164.04 38.874 160.193 37.566C151.666 34.665 136.678 32 128.896 32C110.851 32 89.099 38.518 74.5 48.3C66.92 53.379 53.652 66.67 48.346 74.5C36.463 92.035 30.339 116.978 32.79 137.865C38.171 183.733 72.267 217.829 118.135 223.21C139.022 225.661 163.965 219.537 181.5 207.654C189.33 202.348 202.621 189.08 207.7 181.5C218.185 165.852 224 145.265 224 123.794C224 112.279 222.64 107.842 217.486 102.539C206.026 90.748 185.677 96.554 181.933 112.684C181.446 114.783 181.037 129.628 181.024 145.673L181 174.846L177.923 177.923C172.622 183.224 164.508 181.733 161.274 174.862L159.459 171.004L155.979 173.35C149.23 177.903 141.139 180.23 130.207 180.763C120.963 181.215 119.075 180.993 111.678 178.587C96.487 173.645 83.227 160.912 77.901 146.153C74.435 136.549 74.435 119.451 77.901 109.847C85.275 89.412 105.686 75 127.255 75C141.226 75 151.244 78.49 161.881 87.061L168.066 92.045L173.278 86.916C182.31 78.025 191.967 74.485 205.282 75.184C211.851 75.529 214.955 76.258 220.106 78.669C228.935 82.801 237.128 90.935 241.272 99.685C244.438 106.37 244.506 106.813 244.839 122.93C245.099 135.507 244.771 141.487 243.443 148.43C234.182 196.854 198.426 233.123 150.14 243.071C137.824 245.609 117.073 245.566 105 242.978M141.25 157.145C147.53 154.073 154.018 147.642 157.047 141.484C159.068 137.379 159.5 135.001 159.5 128C159.5 117.858 157.11 111.976 150.297 105.355C143.383 98.635 138.007 96.5 128 96.5C117.858 96.5 111.976 98.89 105.355 105.703C97.521 113.764 94.321 125.132 96.914 135.691C99.265 145.265 107.977 154.811 117.763 158.536C123.48 160.713 135.4 160.007 141.25 157.145" />
    <glyph glyph-name="award"
      unicode="&#xEA1A;"
      horiz-adv-x="256" d="M115.5 254.959C87.857 250.657 64.392 233.556 51.755 208.5C46.393 197.868 43.748 187.287 43.245 174.448C42.254 149.197 51.123 126.637 68.547 110.085L76.134 102.878L69.98 56.853C66.596 31.539 64.094 9.762 64.42 8.461C64.747 7.16 66.097 4.836 67.421 3.297C69.378 1.022 70.649 0.5 74.229 0.5C78.122 0.5 81.488 2.213 103.308 15.294L127.985 30.088L153.243 14.958C176.543 0.999 178.798 -0.134 182.348 0.332C186.887 0.927 190.647 4.114 191.525 8.113C191.873 9.699 189.413 31.473 186.01 56.927L179.866 102.878L187.453 110.085C199.492 121.521 208.03 137.259 211.624 154.64C214.043 166.335 213.13 183.889 209.525 195C197.802 231.129 168.408 253.911 131.5 255.471C126 255.703 118.8 255.473 115.5 254.959M143 232.836C159.613 229.654 177.052 215.532 185.512 198.41C203.39 162.228 182.023 117.702 142.368 108.506C104.089 99.628 66.983 127.327 64.411 166.698C63.044 187.612 71.096 206.075 87.738 220.188C97.078 228.108 107.739 232.46 122.5 234.378C126.421 234.887 136.088 234.16 143 232.836M103.507 89.091C118.297 84.453 137.644 84.484 152.817 89.171C156.324 90.254 159.355 90.978 159.553 90.781C159.75 90.583 161.519 78.289 163.483 63.461C165.447 48.632 167.303 35.26 167.608 33.745C168.129 31.149 167.108 31.623 149.83 41.995C135.727 50.461 130.693 52.995 128 52.983C125.335 52.971 120.204 50.375 106.5 42.106C96.6 36.133 88.425 31.302 88.333 31.373C88.242 31.443 89.926 44.55 92.076 60.5C94.226 76.45 95.989 89.838 95.993 90.25C96.003 91.32 96.778 91.201 103.507 89.091" />
    <glyph glyph-name="bar-chart"
      unicode="&#xEA1B;"
      horiz-adv-x="256" d="M186.381 222.09C184.665 221.044 182.753 218.729 182.131 216.945C181.324 214.63 181 189.111 181 127.819C181 33.741 180.816 36.698 186.872 33.566C190.698 31.588 193.302 31.588 197.128 33.566C203.185 36.698 203 33.724 203 128C203 222.276 203.185 219.302 197.128 222.434C193.133 224.5 190.177 224.405 186.381 222.09M122.381 158.09C120.665 157.044 118.753 154.729 118.131 152.945C117.344 150.688 117 133.312 117 95.819C117 36.71 117.011 36.597 122.872 33.566C126.698 31.588 129.302 31.588 133.128 33.566C138.991 36.598 139 36.693 139 96C139 155.307 138.991 155.402 133.128 158.434C129.133 160.5 126.177 160.405 122.381 158.09M58.381 94.09C53.559 91.15 53 88.004 53 63.819C53 39.493 53.623 36.28 58.872 33.566C62.698 31.588 65.302 31.588 69.128 33.566C74.384 36.284 75 39.478 75 64C75 88.522 74.384 91.716 69.128 94.434C65.133 96.5 62.177 96.405 58.381 94.09" />
    <glyph glyph-name="bar-chart-2"
      unicode="&#xEA1C;"
      horiz-adv-x="256" d="M122.381 222.09C120.665 221.044 118.753 218.729 118.131 216.945C117.324 214.63 117 189.111 117 127.819C117 33.741 116.816 36.698 122.872 33.566C126.698 31.588 129.302 31.588 133.128 33.566C139.185 36.698 139 33.724 139 128C139 222.276 139.185 219.302 133.128 222.434C129.133 224.5 126.177 224.405 122.381 222.09M186.381 158.09C184.665 157.044 182.753 154.729 182.131 152.945C181.344 150.688 181 133.312 181 95.819C181 36.71 181.011 36.597 186.872 33.566C190.698 31.588 193.302 31.588 197.128 33.566C202.991 36.598 203 36.693 203 96C203 155.307 202.991 155.402 197.128 158.434C193.133 160.5 190.177 160.405 186.381 158.09M56.766 114.083L53.5 111.166L53.19 77.333C52.845 39.728 53.155 37.096 58.304 33.956C62.352 31.488 65.648 31.488 69.696 33.956C74.845 37.096 75.155 39.728 74.81 77.333L74.5 111.166L71.234 114.083C68.789 116.267 66.971 117 64 117C61.029 117 59.211 116.267 56.766 114.083" />
    <glyph glyph-name="battery"
      unicode="&#xEA1D;"
      horiz-adv-x="256" d="M26.27 201.946C15.211 199.763 6.031 192.044 2.146 181.662C0.061 176.088 0 174.567 0 128C0 81.368 0.058 79.92 2.156 74.313C5.081 66.495 12.459 58.774 19.869 55.777L25.5 53.5L102.5 53.203C185.073 52.884 188.651 53.058 197.429 57.822C203.247 60.98 210.092 69.656 211.883 76.143C212.765 79.337 213.008 93.708 212.793 130C212.5 179.42 212.496 179.508 210.188 184.193C205.443 193.826 197.312 199.917 186.535 201.909C179.483 203.213 32.859 203.246 26.27 201.946M186.941 179.53C188.531 178.708 190.272 176.66 190.892 174.881C192.43 170.469 192.43 85.531 190.892 81.119C188.676 74.763 191.954 75 106.272 75C19.92 75 25.329 74.574 22.394 81.599C20.348 86.496 20.348 169.504 22.394 174.401C25.329 181.426 19.92 181 106.272 181C172.781 181 184.513 180.786 186.941 179.53M237.923 146.077L235 143.154L235 128L235 112.846L237.923 109.923C242.75 105.096 252.087 106.505 254.805 112.472C256.405 115.983 256.405 140.017 254.805 143.528C252.087 149.495 242.75 150.904 237.923 146.077" />
    <glyph glyph-name="battery-charging"
      unicode="&#xEA1E;"
      horiz-adv-x="256" d="M26.27 201.946C15.211 199.763 6.031 192.044 2.146 181.662C0.061 176.088 0 174.567 0 128C0 81.368 0.058 79.92 2.156 74.313C5.124 66.381 12.484 58.728 19.869 55.894C26.772 53.245 48.817 52.044 55.796 53.937C63.12 55.923 66.007 63.196 62.048 69.689C59.444 73.96 55.266 74.988 40.473 74.994C26.986 75.001 24.821 75.792 22.394 81.599C20.348 86.496 20.348 169.504 22.394 174.401C25.004 180.647 26.333 181 47.255 181C67.093 181 70.632 181.627 74.347 185.798C76.56 188.283 76.906 193.939 75.056 197.396C72.577 202.027 67.771 203.011 48.23 202.89C38.478 202.83 28.596 202.405 26.27 201.946M155.828 201.436C153.114 200.263 151.736 198.798 150.545 195.821C149.042 192.065 149.054 191.549 150.717 188.147C153.578 182.296 157.391 181.003 171.8 181.002C185.823 181 189.128 179.94 190.892 174.881C192.43 170.469 192.43 85.531 190.892 81.119C188.983 75.644 186.314 75 165.518 75C145.528 75 141.705 74.272 138.631 69.883C136.539 66.897 136.539 61.103 138.631 58.117C141.647 53.811 145.633 53 163.784 53C183.038 53 190.453 54.065 197.399 57.826C202.955 60.836 209.166 68.384 211.478 74.937C213.706 81.251 213.749 174.626 211.527 180.923C208.323 190.004 200.877 197.486 191.805 200.741C185.324 203.066 160.697 203.542 155.828 201.436M111.166 200.404C109.035 198.911 69.235 140.222 65.641 133.273C63.603 129.331 63.57 126.733 65.51 122.98C68.163 117.85 69.681 117.539 94.75 117L118 116.5L102.001 92.5C87.727 71.088 86.001 68.05 86.001 64.327C86 58.113 89.764 54 95.454 54C98.324 54 100.635 54.712 102.481 56.164C103.994 57.353 115.079 73.118 127.116 91.196C150.488 126.3 151.178 127.746 147.358 133.576C144.347 138.172 142.736 138.473 118.35 139L95.2 139.5L111.068 163.2C119.796 176.235 127.225 188.048 127.577 189.45C128.472 193.015 127.339 196.752 124.505 199.586C121.609 202.482 114.735 202.903 111.166 200.404M237.923 146.077L235 143.154L235 128L235 112.846L237.923 109.923C242.75 105.096 252.087 106.505 254.805 112.472C256.405 115.983 256.405 140.017 254.805 143.528C252.087 149.495 242.75 150.904 237.923 146.077" />
    <glyph glyph-name="bell"
      unicode="&#xEA1F;"
      horiz-adv-x="256" d="M110 243.044C95.642 239.123 85.349 233.207 75.193 223.04C65.134 212.97 58.492 201.246 55.475 188.235C54.652 184.688 53.548 173.621 53.022 163.643C51.627 137.189 48.734 122.494 41.774 106.5C38.12 98.103 34.358 92.459 27.285 84.766C22.71 79.79 22 78.47 22 74.943C22 69.83 23.267 67.431 26.98 65.51C29.527 64.193 42.458 64 128 64C234.509 64 229.929 63.761 232.982 69.467C235.609 74.375 234.649 78.836 229.992 83.355C217.807 95.182 209.482 113.233 205.482 136.5C204.631 141.45 203.504 153.664 202.978 163.643C201.956 183.008 200.494 191.373 196.583 200.215C187.025 221.828 168.09 237.506 144.356 243.459C135.945 245.568 118.469 245.357 110 243.044M145.348 221.21C160.469 215.708 172.795 203.395 178.134 188.461C179.798 183.806 180.56 177.897 181.611 161.5C183.609 130.315 187.143 114.558 196.807 93.75L200.871 85L128 85L55.129 85L59.193 93.75C68.684 114.187 72.504 130.813 74.038 158.377C74.593 168.344 75.543 178.975 76.149 182C79.96 201.021 95.124 216.878 115 222.627C121.815 224.598 138.132 223.836 145.348 221.21M103.36 40.54C100.319 38.41 98.653 33.662 99.452 29.402C100.269 25.052 107.546 17.335 114.111 13.858C117.761 11.925 120.026 11.531 127.565 11.517C135.692 11.502 137.234 11.81 142.466 14.5C145.925 16.279 149.97 19.475 152.401 22.352C156.003 26.615 156.5 27.808 156.5 32.188C156.5 38.764 153.154 42 146.355 42C142.302 42 141.362 41.527 137.485 37.538C130.398 30.246 125.815 30.239 118.647 37.51C114.738 41.475 113.708 42 109.833 42C107.419 42 104.507 41.343 103.36 40.54" />
    <glyph glyph-name="bell-off"
      unicode="&#xEA20;"
      horiz-adv-x="256" d="M8.816 255.483C8.468 255.135 7.468 254.745 6.595 254.617C5.107 254.398 0.249 250 1.496 250C1.812 250 1.588 249.098 0.998 247.996C0.253 246.605 0.236 244.845 0.941 242.246C1.756 239.242 7.216 233.252 28.511 212C50.161 190.394 54.968 185.107 54.544 183.371C54.257 182.199 53.58 173.199 53.04 163.371C51.592 137.047 48.688 122.388 41.774 106.5C38.12 98.103 34.358 92.459 27.285 84.766C22.71 79.79 22 78.47 22 74.943C22 69.83 23.267 67.431 26.98 65.51C29.507 64.204 39.774 64 103.166 64L176.431 64L207.965 32.638C240.826 -0.044 242.94 -1.708 248.082 1.044C249.137 1.608 250 1.751 250 1.361C250 0.971 251.105 1.69 252.456 2.958C253.806 4.227 254.86 5.543 254.797 5.883C254.734 6.222 255.009 7.24 255.408 8.145C255.807 9.05 255.663 11.525 255.089 13.645C254.202 16.919 236.134 35.404 135.254 136.25C69.919 201.562 15.797 255.006 14.982 255.014C14.167 255.021 12.589 255.272 11.475 255.572C10.361 255.871 9.164 255.831 8.816 255.483M113 243.887C98.312 239.972 85.699 233.66 83.236 228.991C81.492 225.686 82.341 219.214 84.847 216.708C85.946 215.609 88.568 214.407 90.673 214.037C93.879 213.473 95.717 213.971 102 217.105C112.775 222.48 120.704 224.298 131 223.755C150.125 222.747 167.494 211.373 175.38 194.695C179.742 185.468 180.763 180.442 181.51 164.5C182.354 146.476 183.6 136.347 186.58 123.28C188.783 113.62 189.557 111.709 192.146 109.53C195.793 106.462 200.269 106.257 204.696 108.956C208.694 111.394 209.716 115.918 208.052 123.819C204.788 139.321 203.94 145.955 203.03 163.094C202.488 173.32 201.365 184.612 200.537 188.186C194.351 214.856 171.808 237.334 145.17 243.393C137.418 245.156 118.833 245.441 113 243.887M115.5 125L155.491 85L105.31 85L55.129 85L59.193 93.75C67.879 112.453 72.626 131.449 73.621 151.495C74.13 161.744 74.517 165 75.223 165C75.381 165 93.505 147 115.5 125M103.36 40.54C100.319 38.41 98.653 33.662 99.452 29.402C100.269 25.052 107.546 17.335 114.111 13.858C117.761 11.925 120.026 11.531 127.565 11.517C135.692 11.502 137.234 11.81 142.466 14.5C145.925 16.279 149.97 19.475 152.401 22.352C156.003 26.615 156.5 27.808 156.5 32.188C156.5 38.764 153.154 42 146.355 42C142.302 42 141.362 41.527 137.485 37.538C130.398 30.246 125.815 30.239 118.647 37.51C114.738 41.475 113.708 42 109.833 42C107.419 42 104.507 41.343 103.36 40.54" />
    <glyph glyph-name="bluetooth"
      unicode="&#xEA21;"
      horiz-adv-x="256" d="M123.241 254.675C117.382 251.421 117.526 252.682 117.212 201.589L116.924 154.677L95.616 175.839L74.307 197L69.555 197C65.528 197 64.36 196.526 61.901 193.894C59.577 191.406 59 189.881 59 186.222L59 181.655L85.726 154.81L112.451 127.966L86.831 102.233C72.74 88.08 60.714 75.517 60.106 74.316C55.501 65.219 65.221 55.5 74.316 60.106C75.517 60.715 85.612 70.273 96.75 81.347L117 101.482L117 55.709C117 5.445 117.097 4.553 122.872 1.566C126.627 -0.375 129.313 -0.414 132.8 1.422C134.285 2.205 149.338 16.748 166.25 33.74C195.618 63.247 197 64.804 197 68.384C197 70.445 196.502 73.114 195.894 74.316C195.286 75.517 183.26 88.08 169.169 102.233L143.549 127.966L170.274 154.81L197 181.655L197 186.51L197 191.364L166.25 222.26C149.338 239.252 134.285 253.795 132.8 254.578C129.51 256.311 126.247 256.344 123.241 254.675M155.246 170.754L139 154.508L139 187L139 219.492L155.246 203.246L171.492 187L155.246 170.754M155.246 52.754L139 36.508L139 69L139 101.492L155.246 85.246L171.492 69L155.246 52.754" />
    <glyph glyph-name="bold"
      unicode="&#xEA22;"
      horiz-adv-x="256" d="M58.311 222.068C56.177 220.754 54.773 218.846 54.067 216.302C52.605 211.036 52.605 44.964 54.067 39.698C54.776 37.143 56.169 35.258 58.311 33.952C61.364 32.09 63.731 32.009 114 32.039C169.15 32.073 172.107 32.276 182.043 36.714C188.69 39.683 197.467 46.795 202.143 53C209.674 62.997 212.976 72.902 212.976 85.5C212.976 99.534 208.88 110.116 199.274 120.9C196.201 124.35 191.924 128.286 189.77 129.645L185.854 132.118L190.007 136.623C201.997 149.632 205.871 172.567 199.016 189.96C193.511 203.925 181.01 216.107 167 221.157C160.556 223.48 160.071 223.502 111 223.766C63.297 224.023 61.384 223.962 58.311 222.068M154.535 201.909C162.078 200.514 166.569 198.196 171.739 193.026C177.848 186.916 180.398 180.972 180.837 171.815C181.157 165.155 180.852 163.354 178.551 158.315C175.089 150.733 169.925 145.447 162.5 141.882L156.5 139.002L115.75 139.001L75 139L75 171L75 203L111.816 203C134.135 203 150.957 202.57 154.535 201.909M174.855 113.534C189.237 105.568 195.453 89.304 189.844 74.313C186.916 66.486 179.539 58.771 172.131 55.786C166.609 53.561 165.617 53.511 120.75 53.203L75 52.889L75 84.982L75 117.074L122.25 116.787L169.5 116.5L174.855 113.534" />
    <glyph glyph-name="book"
      unicode="&#xEA23;"
      horiz-adv-x="256" d="M55.822 242.617C44.709 238.046 36.466 228.725 33.514 217.391C31.217 208.572 31.249 47.302 33.55 38.47C36.508 27.113 44.612 17.994 55.858 13.368L61.5 11.047L138.8 11.024C223.908 10.998 220.676 10.763 222.892 17.119C224.308 21.182 224.472 234.629 223.061 238.339C222.545 239.697 221.11 241.751 219.873 242.904C217.628 244.995 217.449 245 139.561 244.976L61.5 244.953L55.822 242.617M203 154.5L203 85L132.626 85C72.627 85 61.625 84.779 58 83.5C55.662 82.675 53.58 82 53.374 82C52.437 82 53.086 208.769 54.041 212.209C55.122 216.1 59.893 221.605 63.423 223.033C64.565 223.495 96.438 223.902 134.25 223.937L203 224L203 154.5M203 48L203 32L134.46 32C68.254 32 65.789 32.067 62.061 33.969C51.011 39.606 50.885 56.19 61.848 61.982C65.351 63.833 68.312 63.913 134.25 63.956L203 64L203 48" />
    <glyph glyph-name="book-open"
      unicode="&#xEA24;"
      horiz-adv-x="256" d="M17.452 233.594C10.606 230.612 11 236.099 11 143.758C11 68.353 11.155 60.224 12.631 58.117C16.07 53.207 18.019 53 60.903 53C86.607 53 101.874 52.622 103.685 51.94C110.264 49.464 117 40.277 117 33.779C117 29.154 119.791 24.327 123.478 22.577C127.61 20.617 128.39 20.617 132.522 22.577C136.209 24.327 139 29.154 139 33.779C139 40.277 145.736 49.464 152.315 51.94C154.126 52.622 169.413 53 195.164 53C230.101 53 235.635 53.208 238.633 54.63C245.427 57.854 245 51.883 245 143.758C245 236.387 245.424 230.671 238.328 233.636C234.267 235.333 175.444 235.578 163.322 233.948C152.407 232.481 142.59 227.693 134.43 219.858L128 213.683L121.57 219.858C113.41 227.693 103.593 232.481 92.678 233.948C80.813 235.543 21.284 235.263 17.452 233.594M98 210.431C105.311 207.043 110.611 201.805 114.118 194.5L116.998 188.5L116.999 128.693L117 68.887L114.25 70.373C107.242 74.161 104.928 74.382 68.25 74.77L32 75.153L32 144.077L32 213L62.25 212.99L92.5 212.98L98 210.431M224 144.077L224 75.153L187.75 74.822L151.5 74.49L145.25 71.861L139 69.232L139.01 128.866L139.02 188.5L141.569 194C144.957 201.311 150.195 206.611 157.5 210.118L163.5 212.998L193.75 212.999L224 213L224 144.077" />
    <glyph glyph-name="bookmark"
      unicode="&#xEA25;"
      horiz-adv-x="256" d="M68 233.636C64.975 232.952 61.014 231.606 59.198 230.644C54.518 228.165 48.518 221.688 45.812 216.193L43.5 211.5L43.235 119.688L42.969 27.877L45.908 24.938C48.277 22.569 49.706 22 53.29 22C57.5 22 59.541 23.298 92.117 46.697C111.027 60.28 127.175 71.395 128 71.396C128.825 71.398 144.682 60.487 163.239 47.151C181.795 33.815 198.305 22.441 199.927 21.876C203.385 20.67 209.097 22.873 211.535 26.353C213.742 29.504 213.735 206.665 211.527 212.923C209.517 218.622 204.491 225.388 199.912 228.561C191.169 234.62 192.72 234.483 130.5 234.689C88.104 234.83 72.091 234.56 68 233.636M187.011 211.494C188.959 210.487 190.281 208.748 191.005 206.244C191.749 203.667 191.995 179.231 191.793 127.837L191.5 53.174L162.158 74.091C146.019 85.596 131.732 95.28 130.408 95.613C129.083 95.945 126.917 95.945 125.592 95.613C124.268 95.28 109.981 85.596 93.842 74.091L64.5 53.174L64.207 127.837C64.005 179.142 64.251 203.669 64.993 206.237C66.983 213.127 65.001 212.915 127.8 212.96C176.039 212.994 184.516 212.784 187.011 211.494" />
    <glyph glyph-name="box"
      unicode="&#xEA26;"
      horiz-adv-x="256" d="M117.957 243.645C116.009 242.948 96.659 232.314 74.957 220.013C31.187 195.203 26.912 192.044 23.383 181.909C21.638 176.897 21.5 172.904 21.5 127.479L21.5 78.458L24.792 71.771C26.67 67.957 29.742 63.669 31.943 61.792C37.488 57.061 114.54 13.33 120.5 11.531C126.978 9.576 129.53 9.617 136.095 11.785C143.015 14.07 219.282 57.388 224.24 61.85C226.297 63.701 229.447 68.195 231.24 71.836L234.5 78.457L234.5 127.478C234.5 173.083 234.367 176.881 232.597 181.968C229.16 191.846 224.849 195.012 180.453 220.258C158.442 232.775 138.876 243.462 136.973 244.008C132.227 245.369 122.244 245.178 117.957 243.645M166.736 203.475C186.067 192.489 201.572 183.191 201.191 182.814C199.973 181.606 132.6 142.741 129.896 141.687C127.542 140.769 123.837 142.672 91.15 161.586C71.271 173.089 55.12 182.843 55.257 183.262C55.395 183.681 71.256 193.037 90.504 204.053C118.467 220.057 126.112 224.019 128.545 223.766C130.219 223.592 147.405 214.461 166.736 203.475M79.381 143.837C98.697 132.747 115.067 123.163 115.761 122.54C116.746 121.655 116.965 112.169 116.761 79.23L116.5 37.054L82 56.599C63.025 67.35 46.487 77.263 45.25 78.628L43 81.112L43 122.556C43 145.35 43.284 164 43.631 164C43.979 164 60.066 154.927 79.381 143.837M213 122.611C213 84.651 212.855 81.049 211.25 79.144C210.287 78.002 193.75 68.081 174.5 57.099L139.5 37.13L139.239 79.254C139.095 102.422 139.344 121.744 139.791 122.191C140.943 123.343 211.341 163.933 212.25 163.97C212.662 163.986 213 145.375 213 122.611" />
    <glyph glyph-name="briefcase"
      unicode="&#xEA27;"
      horiz-adv-x="256" d="M100 233.613C92.848 232.027 88.784 229.81 84.009 224.89C77.568 218.253 75.552 212.984 75.156 201.75L74.813 192L55.944 192C39.374 192 36.408 191.75 31.599 189.951C25.107 187.522 17.256 180.462 13.863 174L11.5 169.5L11.5 107L11.5 44.5L13.813 39.805C16.539 34.269 22.947 27.578 27.98 25.01C29.951 24.005 34.219 22.691 37.465 22.091C45.631 20.581 210.325 20.577 218.566 22.087C227.283 23.683 233.645 27.526 238.521 34.143C240.809 37.246 243.222 41.746 243.885 44.143C244.778 47.376 245.013 64.102 244.795 109L244.5 169.5L241.534 174.855C237.752 181.683 231.281 187.377 224.36 189.967C219.6 191.747 216.58 192 200.056 192L181.187 192L180.844 201.75C180.448 212.989 178.432 218.253 171.98 224.901C167.102 229.927 162.099 232.511 154.535 233.909C146.551 235.385 107.024 235.17 100 233.613M154.941 211.53C158.448 209.717 160 205.52 160 197.851L160 192L128 192L96 192L96 197.851C96 205.362 97.538 209.681 100.856 211.484C104.767 213.608 150.846 213.648 154.941 211.53M75 107L75 43L57.547 43C46.626 43 39.159 43.426 37.595 44.139C32.022 46.678 32 46.92 32 106.951C32 167.908 31.882 166.739 38.315 169.536C40.597 170.529 46.251 170.933 58.25 170.961L75 171L75 107M160 107L160 43L128 43L96 43L96 107L96 171L128 171L160 171L160 107M217.643 169.365C224.165 166.27 224 167.885 224 107.199C224 69.598 223.651 51.297 222.892 49.119C221.002 43.697 218.229 43 198.55 43L181 43L181 107L181 171L197.599 171C210.89 171 214.884 170.674 217.643 169.365" />
    <glyph glyph-name="calendar"
      unicode="&#xEA28;"
      horiz-adv-x="256" d="M77.923 242.077C75.207 239.361 75 238.618 75 231.577L75 224L61.538 224C50.199 224 47.166 223.66 42.313 221.844C34.495 218.919 26.774 211.541 23.777 204.131L21.5 198.5L21.5 118C21.5 56.9 21.798 36.522 22.737 33.441C25.541 24.242 33.773 15.755 43.077 12.473C49.442 10.227 206.687 10.273 213.063 12.522C219.604 14.83 227.162 21.045 230.188 26.604C234.94 35.335 235.116 38.953 234.797 121.5L234.5 198.5L232.223 204.131C229.226 211.541 221.505 218.919 213.687 221.844C208.834 223.66 205.801 224 194.462 224L181 224L181 231.577C181 238.618 180.793 239.361 178.077 242.077C174.753 245.401 169.788 245.976 165.145 243.575C161.389 241.633 160 238.09 160 230.453L160 224L128 224L96 224L96 230.453C96 238.09 94.611 241.633 90.855 243.575C86.212 245.976 81.247 245.401 77.923 242.077M75 195.577C75 189.096 75.321 187.772 77.527 185.15C80.7 181.38 84.708 180.434 89.33 182.365C94.1 184.358 96 188.37 96 196.45L96 203L128 203L160 203L160 196.45C160 188.37 161.9 184.358 166.67 182.365C171.292 180.434 175.3 181.38 178.473 185.15C180.679 187.772 181 189.096 181 195.577L181 203L192.032 203C204.056 203 208.634 201.789 211.369 197.883C212.728 195.943 213 192.594 213 177.777L213 160L128 160L43 160L43 177.777C43 192.584 43.272 195.944 44.628 197.88C47.375 201.801 51.58 202.919 63.75 202.961L75 203L75 195.577M213 89.45C213 34.825 213.047 35.258 206.881 33.108C202.41 31.55 53.59 31.55 49.119 33.108C42.953 35.258 43 34.825 43 89.45L43 139L128 139L213 139L213 89.45" />
    <glyph glyph-name="camera"
      unicode="&#xEA29;"
      horiz-adv-x="256" d="M93.5 234.343C89.893 233.563 87.363 230.676 78.172 216.849L69.097 203.197L47.298 202.785C27.741 202.416 24.921 202.146 19.869 200.159C12.472 197.251 5.104 189.567 2.156 181.687C0.031 176.007 0 175.018 0 112C0 48.982 0.031 47.993 2.156 42.313C5.081 34.495 12.459 26.774 19.869 23.777L25.5 21.5L127.5 21.5C225.066 21.5 229.737 21.582 234.95 23.397C241.611 25.715 249.167 32.504 252.85 39.48L255.5 44.5L255.5 112L255.5 179.5L253.147 184C249.523 190.929 242.36 197.706 236.026 200.199C231.1 202.137 228.134 202.418 208.694 202.785L186.889 203.197L177.556 217.177C172.423 224.865 167.16 231.908 165.861 232.828C163.776 234.305 159.527 234.516 129.5 234.638C110.8 234.714 94.6 234.581 93.5 234.343M163.979 198.917C169.193 191.205 174.301 184.131 175.332 183.198C176.97 181.714 180.388 181.461 202.464 181.189L227.722 180.877L231.111 178.048L234.5 175.219L234.5 112L234.5 48.781L231.038 45.89L227.576 43L128.01 43C17.496 43 25.357 42.509 22.394 49.599C20.375 54.432 20.33 169.46 22.345 174.282C24.929 180.465 24.876 180.453 53.072 181C83.577 181.592 79.571 179.712 92.682 199.59L101.5 212.959L128 212.949L154.5 212.939L163.979 198.917M119 169.84C108.503 168.366 97.299 162.246 89.545 153.75C78.558 141.712 74.371 130.208 75.218 114.386C76.387 92.536 89.816 74.481 110.652 66.747C115.401 64.984 118.661 64.576 128 64.576C137.339 64.576 140.599 64.984 145.348 66.747C166.184 74.481 179.613 92.536 180.782 114.386C181.629 130.208 177.442 141.712 166.455 153.75C158.272 162.716 147.595 168.333 135.678 169.943C131.375 170.524 127.325 170.944 126.678 170.877C126.03 170.809 122.575 170.342 119 169.84M142.868 145.475C162.639 134.715 165.805 109.316 149.299 93.877C130.038 75.86 97.924 88.948 96.245 115.5C95.333 129.935 103.7 142.379 117.882 147.679C120.162 148.531 124.463 148.911 129.512 148.707C136.088 148.441 138.483 147.862 142.868 145.475" />
    <glyph glyph-name="camera-off"
      unicode="&#xEA2A;"
      horiz-adv-x="256" d="M8.816 255.483C8.468 255.135 7.468 254.745 6.595 254.617C5.107 254.398 0.249 250 1.496 250C1.812 250 1.585 249.093 0.992 247.985C-1.535 243.264 1.114 239.407 19.579 220.92L37.199 203.281L30.963 202.575C16.746 200.967 6.623 193.626 2.156 181.687C0.031 176.007 0 175.018 0 112C0 48.982 0.031 47.993 2.156 42.313C5.081 34.495 12.459 26.774 19.869 23.777L25.5 21.5L122.439 21.221L219.377 20.942L229.448 11.144C239.85 1.024 243.921 -1.183 248.082 1.044C249.137 1.608 250 1.751 250 1.361C250 0.971 251.105 1.69 252.456 2.958C253.806 4.227 254.86 5.543 254.797 5.883C254.734 6.222 255.009 7.24 255.408 8.145C255.807 9.05 255.663 11.525 255.089 13.645C254.202 16.919 236.134 35.404 135.254 136.25C69.919 201.562 15.797 255.006 14.982 255.014C14.167 255.021 12.589 255.272 11.475 255.572C10.361 255.871 9.164 255.831 8.816 255.483M91.828 233.398C89.096 232.245 87.744 230.818 86.545 227.821C85.042 224.065 85.054 223.549 86.717 220.147C90.06 213.31 91.672 213.007 125 212.971L154.5 212.939L163.979 198.917C169.193 191.205 174.301 184.131 175.332 183.198C176.97 181.714 180.388 181.461 202.464 181.189L227.722 180.877L231.111 178.049L234.5 175.221L235 120.763C235.548 61.084 235.216 64.063 241.615 61.388C246.127 59.502 251.541 61.207 254.067 65.311C255.963 68.393 256.02 70.356 255.765 124L255.5 179.5L253.147 184C249.523 190.929 242.36 197.706 236.026 200.199C231.1 202.137 228.134 202.418 208.694 202.785L186.889 203.197L177.556 217.177C172.423 224.865 167.16 231.908 165.861 232.828C163.782 234.3 159.437 234.527 129.5 234.724C100.684 234.914 94.94 234.712 91.828 233.398M73.646 166.854L87.817 152.709L83.992 147.104C77.689 137.87 75.789 131.932 75.233 119.745C74.658 107.129 75.584 102.831 81.275 91.714C87.517 79.52 98.968 70.29 113.359 65.853C126.856 61.692 146.323 65.016 158.127 73.496L163.289 77.204L180.391 60.102L197.493 43L112.969 43C19.175 43 25.339 42.551 22.394 49.599C20.334 54.53 20.334 169.47 22.394 174.401C24.931 180.472 26.658 181 43.96 181L59.475 181L73.646 166.854M125.918 114.582L148.319 92.165L144.909 90.074C137.993 85.833 128.407 84.223 120.855 86.035C100.586 90.897 90.416 112.165 99.233 131.25C100.694 134.412 102.255 137 102.703 137C103.151 137 113.597 126.912 125.918 114.582" />
    <glyph glyph-name="cast"
      unicode="&#xEA2B;"
      horiz-adv-x="256" d="M31.315 221.902C25.113 219.518 17.142 212.251 13.872 206C11.723 201.891 11.488 200.031 11.172 184.596C10.79 165.933 11.163 164.304 16.459 161.452C20.595 159.225 25.814 160.11 29.09 163.593C31.354 166 31.53 167.047 32 180.828C32.325 190.352 32.967 196.319 33.83 197.835C36.824 203.088 35.217 203 128.067 203C222.919 203 219.276 203.235 222.544 196.915C224.722 192.703 224.722 63.297 222.544 59.085C219.535 53.267 217.656 53 179.705 53L145.212 53L142.106 50.099C139.537 47.699 139.005 46.446 139.032 42.849C139.066 38.21 140.034 36.419 143.973 33.704C146.19 32.175 150.176 32 182.685 32C216.675 32 219.262 32.126 224.36 34.033C231.281 36.623 237.752 42.317 241.534 49.145L244.5 54.5L244.5 128L244.5 201.5L241.534 206.855C237.752 213.683 231.281 219.377 224.36 221.967C219.037 223.958 217.041 223.999 127.712 223.948C39.066 223.897 36.354 223.84 31.315 221.902M14.4 134.6C10.771 130.971 10.038 127.205 12.085 122.712C13.666 119.243 17.501 117.363 26.513 115.64C47.869 111.558 65.621 100.582 78.432 83.539C87.14 71.954 91.787 61.353 94.615 46.618C95.447 42.282 96.796 37.715 97.612 36.469C100.712 31.738 109.735 30.756 113.234 34.77C116.778 38.834 117.198 40.879 116.019 48.328C112.436 70.971 102.53 90.266 85.726 107.337C70.217 123.092 52.369 132.528 30.5 136.532C19.301 138.583 18.258 138.458 14.4 134.6M17.388 94.02C14.145 92.709 11 88.076 11.004 84.615C11.01 79.089 14.074 75.562 20.629 73.532C29.783 70.698 35.068 67.609 40.65 61.831C46.081 56.21 50.022 49.345 51.968 42.118C54.642 32.188 64.028 28.937 70.716 35.625C73.06 37.969 73.219 38.684 72.736 44.701C71.8 56.361 62.56 71.881 50.655 81.792C44.844 86.63 35.115 91.617 27.565 93.627C21.801 95.162 20.354 95.218 17.388 94.02M13.923 50.077C9.096 45.25 10.505 35.913 16.472 33.195C21.203 31.039 24.914 31.714 28.6 35.4C35.619 42.419 31.179 52.926 21.173 52.978C17.707 52.996 16.265 52.418 13.923 50.077" />
    <glyph glyph-name="check"
      unicode="&#xEA2C;"
      horiz-adv-x="256" d="M210 201.872C208.625 201.349 182.414 175.854 151.752 145.216L96.004 89.511L72.252 113.208C59.189 126.241 47.352 137.331 45.949 137.852C38.444 140.639 30.511 133.233 32.452 125.25C33.372 121.464 89.464 65.372 93.25 64.452C94.763 64.084 97.237 64.084 98.75 64.452C101.783 65.189 220.03 182.415 222.568 187.2C224.401 190.656 224.379 193.366 222.49 197.02C220.199 201.45 214.603 203.624 210 201.872" />
    <glyph glyph-name="check-circle"
      unicode="&#xEA2D;"
      horiz-adv-x="256" d="M105.5 243.134C94.237 240.635 84.789 237.36 75.5 232.733C63.379 226.697 57.427 222.431 46.808 212.173C23.509 189.665 11 160.436 11 128.5C11 56.22 74.062 1.83 145.621 12.39C203.018 20.86 245 69.912 245 128.504C245 141.784 244.999 141.79 242.099 144.894C239.699 147.463 238.446 147.995 234.849 147.968C226.785 147.909 224 143.772 224 131.85C224 92.927 204.793 60.148 172 43.103C119.04 15.577 54.662 42.573 36.591 99.885C29.518 122.318 31.128 147.059 41.011 167.815C55.716 198.698 82.927 218.582 116.635 223.077C131.601 225.073 145.837 223.313 162.31 217.431C171.279 214.229 174.205 214.318 178.234 217.918C181.006 220.395 181.5 221.517 181.5 225.337C181.5 231.239 178.747 234.164 170.106 237.44C156.435 242.625 147.562 244.202 130 244.566C116.909 244.838 111.847 244.542 105.5 243.134M231 223.313C230.175 223.021 206.679 200.012 178.786 172.181L128.072 121.579L114.142 135.29C101.304 147.925 99.922 149 96.51 149C89.586 149 84.581 142.913 85.821 136C86.438 132.563 121.549 97.342 125.25 96.448C126.763 96.082 129.238 96.081 130.75 96.446C132.606 96.893 151.628 115.227 189.25 152.831L245 208.555L245 212.812C245 215.154 244.295 218.146 243.434 219.46C241.163 222.926 235.167 224.784 231 223.313" />
    <glyph glyph-name="check-square"
      unicode="&#xEA2E;"
      horiz-adv-x="256" d="M47.223 233.938C37.222 231.967 28.523 224.728 23.769 214.42L21.5 209.5L21.5 128L21.5 46.5L24.614 39.928C28.075 32.625 33.423 27.531 41.58 23.769L46.5 21.5L128 21.5L209.5 21.5L214.42 23.769C222.426 27.461 227.551 32.343 231.2 39.752L234.5 46.452L234.781 87.476C235.098 133.683 235.09 133.745 227.853 137.283C224.452 138.946 223.935 138.958 220.181 137.456C213.121 134.631 213 133.81 213 88.586L213 49.212L210.099 46.106L207.198 43L128 43L48.802 43L45.901 46.106L43 49.212L43 128.205L43 207.198L46.106 210.099L49.212 213L110.205 213C176.173 213 175.763 212.968 179.535 218.353C181.5 221.159 181.388 226.479 179.296 229.672C175.791 235.02 175.933 235.009 111.282 234.89C78.402 234.83 49.575 234.402 47.223 233.938M231 223.313C230.175 223.021 206.672 200.006 178.771 172.167L128.043 121.55L114.191 135.275C101.403 147.946 100.055 149 96.635 149C92.022 149 88.117 146.524 86.454 142.545C83.925 136.491 85.161 134.614 104.385 115.306C122.813 96.798 125.181 95.104 130.75 96.446C132.606 96.893 151.628 115.227 189.25 152.831L245 208.555L245 212.812C245 215.154 244.295 218.146 243.434 219.46C241.163 222.926 235.167 224.784 231 223.313" />
    <glyph glyph-name="chevron-down"
      unicode="&#xEA2F;"
      horiz-adv-x="256" d="M59.828 169.373C54.772 167.274 52.333 161.531 54.399 156.587C56.306 152.024 120.013 88.31 124.575 86.404C127.548 85.162 128.454 85.163 131.438 86.41C136.112 88.362 199.681 151.993 201.639 156.677C202.949 159.813 202.915 160.514 201.296 163.827C200.177 166.116 198.116 168.177 195.827 169.296C192.559 170.893 191.787 170.937 188.827 169.691C186.907 168.883 173.24 156.131 156.505 139.531L127.511 110.771L99.505 139.394C80.02 159.31 70.369 168.472 67.782 169.509C65.737 170.329 63.937 170.977 63.782 170.948C63.627 170.92 61.848 170.211 59.828 169.373" />
    <glyph glyph-name="chevron-left"
      unicode="&#xEA30;"
      horiz-adv-x="256" d="M156.256 201.503C151.829 199.591 88.204 135.731 86.383 131.374C85.169 128.469 85.17 127.529 86.388 124.613C88.296 120.047 151.989 56.32 156.549 54.415C159.531 53.169 160.432 53.189 163.896 54.575C166.938 55.792 168.208 57.062 169.425 60.104C170.816 63.582 170.833 64.437 169.567 67.276C168.776 69.049 155.32 83.548 139.666 99.495L111.203 128.489L139.58 156.57C170.298 186.968 172.136 189.347 169.597 195.422C167.203 201.151 161.479 203.76 156.256 201.503" />
    <glyph glyph-name="chevron-right"
      unicode="&#xEA31;"
      horiz-adv-x="256" d="M91.828 201.364C86.838 199.305 84.333 193.523 86.351 188.724C87.102 186.936 100.246 172.862 115.853 157.134C131.334 141.533 144 128.422 144 128C144 127.578 131.334 114.467 115.853 98.866C99.614 82.5 87.114 69.092 86.307 67.173C85.063 64.214 85.107 63.44 86.704 60.173C87.823 57.884 89.884 55.823 92.173 54.704C95.477 53.089 96.193 53.054 99.297 54.351C103.998 56.315 167.608 119.817 169.564 124.498C170.76 127.361 170.794 128.494 169.758 130.916C168.291 134.346 105.712 198.592 102.003 200.475C97.555 202.735 95.569 202.908 91.828 201.364" />
    <glyph glyph-name="chevron-up"
      unicode="&#xEA32;"
      horiz-adv-x="256" d="M124.346 169.541C119.852 167.598 56.222 103.775 54.378 99.361C53.048 96.179 53.079 95.498 54.704 92.173C55.823 89.884 57.884 87.823 60.173 86.704C66.439 83.641 68.371 85.107 99.617 116.627L128 145.258L156.383 116.627C174.715 98.134 186.037 87.465 188.356 86.496C191.572 85.152 192.36 85.16 195.896 86.575C201.011 88.622 203.717 94.34 201.747 98.942C200.287 102.355 137.694 166.601 134.003 168.475C129.597 170.713 127.572 170.937 124.346 169.541" />
    <glyph glyph-name="chevrons-down"
      unicode="&#xEA33;"
      horiz-adv-x="256" d="M72.333 202.301C67.055 201.282 63.114 194.755 64.452 189.25C65.372 185.464 121.464 129.372 125.25 128.452C126.763 128.084 129.238 128.087 130.75 128.459C133.791 129.207 188.113 182.546 190.573 187.2C192.512 190.869 192.361 193.896 190.048 197.689C187.722 201.504 182.288 203.428 178.165 201.895C176.699 201.351 164.817 190.247 151.76 177.22L128.019 153.535L103.713 177.767C90.344 191.095 78.902 202 78.285 202C77.668 202 76.564 202.162 75.832 202.36C75.099 202.557 73.525 202.531 72.333 202.301M71 127.294C65.371 125.236 62.751 118.435 65.42 112.809C67.812 107.768 119.628 56.462 124.289 54.52C127.825 53.046 128.358 53.068 132.289 54.851C137.802 57.351 190.517 110.208 191.529 114.25C193.577 122.434 185.815 129.928 177.837 127.47C176.552 127.074 164.808 116.135 151.741 103.162L127.982 79.574L104.741 102.725C79.958 127.411 77.071 129.513 71 127.294" />
    <glyph glyph-name="chevrons-left"
      unicode="&#xEA34;"
      horiz-adv-x="256" d="M112.5 190.498C110.85 189.624 97.639 177.117 83.143 162.704C53.792 133.523 51.79 130.837 54.52 124.289C56.236 120.172 105.847 69.548 111.813 65.826C120.344 60.504 130.577 69.048 127.004 78.51C126.383 80.155 115.453 91.963 102.716 104.75L79.556 128L102.716 151.25C115.453 164.037 126.383 175.845 127.004 177.49C130.428 186.558 121.009 195.006 112.5 190.498M186.5 190.105C180.947 186.612 129.177 133.67 128.459 130.75C128.088 129.237 128.087 126.762 128.459 125.25C129.207 122.209 182.546 67.887 187.2 65.427C190.869 63.488 193.896 63.639 197.689 65.952C201.504 68.278 203.428 73.712 201.895 77.835C201.351 79.301 190.242 91.187 177.21 104.25L153.516 128L177.21 151.75C190.242 164.812 201.364 176.734 201.924 178.241C204.21 184.387 198.601 192.007 191.8 191.996C190.535 191.994 188.15 191.143 186.5 190.105" />
    <glyph glyph-name="chevrons-right"
      unicode="&#xEA35;"
      horiz-adv-x="256" d="M59.241 190.675C54.771 188.192 52.469 182.567 54.113 178.143C54.653 176.689 65.758 164.812 78.79 151.75L102.484 128L78.79 104.25C65.758 91.187 54.649 79.301 54.105 77.835C52.572 73.712 54.496 68.278 58.311 65.952C62.104 63.639 65.131 63.488 68.8 65.427C73.454 67.887 126.793 122.209 127.541 125.25C127.913 126.762 127.913 129.237 127.541 130.75C126.793 133.791 73.454 188.113 68.8 190.573C65.512 192.31 62.249 192.345 59.241 190.675M135 191.294C129.759 189.378 126.948 182.915 128.996 177.49C129.617 175.845 140.547 164.037 153.284 151.25L176.444 128L153.284 104.75C140.547 91.963 129.617 80.155 128.996 78.51C125.939 70.413 132.706 62.712 141.272 64.54C145.729 65.491 198.328 117.489 201.167 123.75C203.07 127.948 203.07 128.052 201.161 132.25C198.841 137.351 147.106 189.275 142.685 190.94C139.678 192.072 137.415 192.177 135 191.294" />
    <glyph glyph-name="chevrons-up"
      unicode="&#xEA36;"
      horiz-adv-x="256" d="M123.5 201.087C117.434 198.274 65.45 145.536 64.54 141.272C62.712 132.706 70.413 125.939 78.51 128.996C80.155 129.617 91.958 140.542 104.741 153.275L127.982 176.426L151.741 152.838C164.808 139.865 176.552 128.926 177.837 128.53C183.322 126.84 189.793 130.28 191.46 135.772C193.218 141.569 191.627 143.638 164.135 171.31C132.024 203.633 130.848 204.494 123.5 201.087M122.5 126.105C116.947 122.612 65.177 69.67 64.459 66.75C62.499 58.779 70.441 51.36 77.949 54.148C79.352 54.669 91.188 65.758 104.25 78.79L128 102.484L151.75 78.79C164.813 65.758 176.699 54.649 178.165 54.105C182.288 52.572 187.722 54.496 190.048 58.311C192.363 62.107 192.512 65.135 190.566 68.8C188.84 72.05 135.428 125.32 132.316 126.895C129.131 128.506 125.904 128.247 122.5 126.105" />
    <glyph glyph-name="chrome"
      unicode="&#xEA37;"
      horiz-adv-x="256" d="M105 242.978C49.52 231.085 11 183.969 11 128C11 78.191 41.952 34.358 89 17.538C113.657 8.724 142.343 8.724 167 17.538C234.181 41.556 264.701 119.027 231.854 182.164C215.491 213.616 185.842 235.716 150.14 243.071C137.824 245.609 117.073 245.566 105 242.978M140.549 222.93C153.739 221.095 170.638 215 180 208.7C189.902 202.036 207 185.095 207 181.948C207 181.365 190.047 181 162.965 181L118.93 181L111.155 178.43C101.24 175.153 91.389 167.894 84.874 159.065C82.21 155.454 80.023 151.937 80.015 151.25C79.976 147.986 77.514 151.484 66.647 170.25L54.921 190.5L61.803 197.106C70.274 205.237 78.33 210.775 87.5 214.77C106.033 222.846 122.712 225.411 140.549 222.93M60.735 137.75C70.639 120.562 79.32 105.375 80.025 104C82.936 98.323 90.394 89.864 96.561 85.246C105.059 78.882 113.989 75.702 125.262 75.026L134.023 74.5L122.519 54.503C116.192 43.504 110.552 34.351 109.986 34.162C106.596 33.032 83.632 42.181 74.5 48.3C66.92 53.379 53.652 66.67 48.346 74.5C33.951 95.742 28.64 125.744 34.941 150.222C37.282 159.316 40.889 169 41.935 169C42.371 169 50.83 154.937 60.735 137.75M141.25 157.145C147.53 154.073 154.018 147.642 157.047 141.484C160.596 134.272 160.574 121.645 157 114.507C153.884 108.285 147.467 101.901 141.25 98.839C134.364 95.448 121.556 95.488 114.577 98.923C101.045 105.583 93.419 121.459 96.914 135.691C99.265 145.265 107.977 154.811 117.763 158.536C123.48 160.713 135.4 160.007 141.25 157.145M220.247 153.5C227.765 128.83 222.688 96.87 207.7 74.5C202.621 66.92 189.33 53.652 181.5 48.346C171.009 41.236 154.174 34.892 141.204 33.159C135.653 32.418 134.98 32.507 135.513 33.909C136.128 35.526 148.322 56.771 166.248 87.458C178.399 108.259 181 115.408 181 128C181 137.622 178.024 149.26 174.117 154.912C173.133 156.335 171.998 158.071 171.594 158.768C171.007 159.781 175.655 159.982 194.639 159.768L218.419 159.5L220.247 153.5" />
    <glyph glyph-name="circle"
      unicode="&#xEA38;"
      horiz-adv-x="256" d="M105 242.978C49.546 231.09 11 183.942 11 128C11 78.191 41.952 34.358 89 17.538C113.657 8.724 142.343 8.724 167 17.538C214.048 34.358 245 78.191 245 128C245 184.343 206.09 231.544 150.14 243.071C137.824 245.609 117.073 245.566 105 242.978M140.549 222.93C154.599 220.976 170.711 214.965 181.5 207.654C189.33 202.348 202.621 189.08 207.7 181.5C219.565 163.792 225.654 138.967 223.221 118.225C221.385 102.577 215.608 86.302 207.7 74.5C202.621 66.92 189.33 53.652 181.5 48.346C169.833 40.439 153.498 34.624 137.775 32.779C117.033 30.346 92.208 36.435 74.5 48.3C66.92 53.379 53.652 66.67 48.346 74.5C36.486 92.001 30.34 116.983 32.779 137.775C34.624 153.498 40.439 169.833 48.346 181.5C53.652 189.33 66.92 202.621 74.5 207.7C93.19 220.223 118.331 226.02 140.549 222.93" />
    <glyph glyph-name="clipboard"
      unicode="&#xEA39;"
      horiz-adv-x="256" d="M88 243.883C82.01 241.512 75 232.135 75 226.494C75 224.327 74.592 224.216 65.25 223.835C57.528 223.519 54.463 222.933 50.516 221.016C44.388 218.039 37.948 211.563 34.839 205.25L32.5 200.5L32.227 118.848C31.959 38.561 31.989 37.104 34.011 31.701C36.621 24.723 42.298 18.258 49.145 14.466L54.5 11.5L128 11.5L201.5 11.5L206.855 14.466C213.697 18.256 219.378 24.722 221.984 31.686C223.998 37.07 224.029 38.608 223.767 118.833L223.5 200.5L221.161 205.25C218.052 211.563 211.612 218.039 205.484 221.016C201.537 222.933 198.472 223.519 190.75 223.835C181.335 224.219 181 224.312 181 226.551C181 230.402 179.08 234.294 175.19 238.325C168.714 245.039 168.942 245.007 127.628 244.937C105.642 244.899 89.48 244.47 88 243.883M160 213.5L160 203L128 203L96 203L96 213.5L96 224L128 224L160 224L160 213.5M75 199.838C75 195.741 78.97 189.023 83.377 185.662C89.076 181.315 94 180.854 131.145 181.19L165.5 181.5L169.918 184C175.558 187.192 181 194.922 181 199.741L181 203.263L188.25 202.797C192.238 202.541 196.446 201.74 197.602 201.017C202.668 197.851 202.481 200.827 202.774 118.702C203.076 33.993 203.265 36.74 196.915 33.456C192.703 31.278 63.297 31.278 59.085 33.456C52.734 36.74 52.924 33.973 53.226 118.887L53.5 195.869L56.388 198.883C59.608 202.244 60.978 202.668 69.25 202.864L75 203L75 199.838" />
    <glyph glyph-name="clock"
      unicode="&#xEA3A;"
      horiz-adv-x="256" d="M105 242.978C49.546 231.09 11 183.942 11 128C11 78.191 41.952 34.358 89 17.538C113.657 8.724 142.343 8.724 167 17.538C214.048 34.358 245 78.191 245 128C245 184.343 206.09 231.544 150.14 243.071C137.824 245.609 117.073 245.566 105 242.978M140.549 222.93C154.599 220.976 170.711 214.965 181.5 207.654C189.33 202.348 202.621 189.08 207.7 181.5C219.565 163.792 225.654 138.967 223.221 118.225C221.385 102.577 215.608 86.302 207.7 74.5C202.621 66.92 189.33 53.652 181.5 48.346C169.833 40.439 153.498 34.624 137.775 32.779C117.033 30.346 92.208 36.435 74.5 48.3C66.92 53.379 53.652 66.67 48.346 74.5C36.486 92.001 30.34 116.983 32.779 137.775C34.624 153.498 40.439 169.833 48.346 181.5C53.652 189.33 66.92 202.621 74.5 207.7C93.19 220.223 118.331 226.02 140.549 222.93M123.799 201.352C117.173 198.618 116.852 196.509 117.199 157.972C117.448 130.291 117.76 124.097 119 122.171C120.787 119.395 166.815 96 170.488 96C178.6 96 183.381 104.496 179.496 112.008C178.295 114.33 174.056 116.894 158.499 124.708L139.007 134.5L139.003 163.282C139 194.228 138.567 197.329 133.834 200.318C130.019 202.727 127.708 202.965 123.799 201.352" />
    <glyph glyph-name="cloud"
      unicode="&#xEA3B;"
      horiz-adv-x="256" d="M82.583 222.893C57.29 219.204 33.671 205.076 18.941 184.824C-5.384 151.381 -6.058 107.698 17.221 73.403C32.102 51.479 56.829 36.341 83.146 33.041C87.955 32.438 113.612 32 144.136 32C204.509 32 207.133 32.246 220.973 39.213C235.707 46.63 247.935 61.052 253.288 77.326C256.182 86.127 256.182 105.873 253.288 114.674C244.489 141.426 219.346 159.926 191.662 160.017L186.5 160.034L184.097 165.584C166.98 205.115 124.627 229.025 82.583 222.893M114.43 200.437C121.357 198.576 132.173 193.308 140.075 187.946C151.465 180.218 161.715 166.206 166.594 151.693C170.444 140.242 171.748 139.437 187.651 138.698C194.718 138.37 202.3 137.504 204.5 136.773C215.808 133.019 225.336 124.78 230.071 114.662C241.406 90.439 230.267 64.491 204.5 55.096C201.247 53.91 190.973 53.567 149.5 53.257C95.402 52.853 83.582 53.447 72.774 57.116C41.608 67.694 21.689 95.495 21.628 128.5C21.589 150.122 29.875 168.545 46.485 183.766C63.849 199.676 91.766 206.526 114.43 200.437" />
    <glyph glyph-name="cloud-drizzle"
      unicode="&#xEA3C;"
      horiz-adv-x="256" d="M82.583 254.893C57.29 251.204 33.671 237.076 18.941 216.824C2.478 194.189 -3.373 166.684 2.451 139.309C5.203 126.379 9.02 117.347 16.319 106.5C21.113 99.374 33.387 86.387 37.2 84.404C44.581 80.567 52.931 85.266 52.978 93.284C52.998 96.656 52.117 98.005 44.875 105.693C31.461 119.935 26.829 128.5 22.812 146.5C21.27 153.408 20.938 157.476 21.384 164C24.145 204.407 56.111 234.346 96.5 234.353C109.273 234.356 116.795 232.638 127.413 227.295C147.584 217.145 159.988 203.341 166.594 183.693C170.3 172.67 172.565 171.002 183.827 170.994C188.597 170.991 195.149 170.555 198.387 170.024C221.206 166.287 237.451 144.357 233.941 122.028C231.818 108.519 223.241 96.196 211.996 90.498C205.694 87.304 203 83.792 203 78.766C203 75.621 203.642 74.203 206.106 71.901C210.857 67.463 214.246 67.638 223.687 72.808C247.379 85.784 260.689 116.021 254.128 141.964C251.369 152.877 247.442 161.017 241.339 168.477C229.573 182.86 210.652 191.783 191.5 191.982L186.5 192.034L184.097 197.584C166.98 237.115 124.627 261.025 82.583 254.893M80.11 126.604C75.749 124.187 75.073 121.487 75.035 106.327C75.001 92.602 75.08 92.058 77.527 89.15C80.7 85.38 84.708 84.434 89.33 86.365C95.022 88.743 96 91.85 96 107.55L96 121.2L92.6 124.6C88.864 128.336 84.499 129.037 80.11 126.604M163.4 124.6L160 121.2L160 107.55C160 91.85 160.978 88.743 166.67 86.365C171.292 84.434 175.3 85.38 178.473 89.15C180.91 92.046 181 92.648 181 106.03C181 121.236 180.23 124.313 175.855 126.575C171.138 129.014 167.188 128.388 163.4 124.6M123.321 105.387C118.272 102.897 117 98.909 117 85.567C117 77.777 117.469 72.812 118.421 70.534C119.891 67.017 124.313 64 128 64C131.687 64 136.109 67.017 137.579 70.534C138.531 72.812 139 77.777 139 85.567C139 99.049 137.726 102.953 132.522 105.423C128.421 107.369 127.331 107.364 123.321 105.387M80.11 62.604C75.749 60.187 75.073 57.487 75.035 42.327C75.001 28.602 75.08 28.058 77.527 25.15C80.7 21.38 84.708 20.434 89.33 22.365C95.022 24.743 96 27.85 96 43.55L96 57.2L92.6 60.6C88.864 64.336 84.499 65.037 80.11 62.604M163.4 60.6L160 57.2L160 43.55C160 27.85 160.978 24.743 166.67 22.365C171.292 20.434 175.3 21.38 178.473 25.15C180.91 28.046 181 28.648 181 42.03C181 57.236 180.23 60.313 175.855 62.575C171.138 65.014 167.188 64.388 163.4 60.6M123.321 41.387C118.272 38.897 117 34.909 117 21.567C117 13.777 117.469 8.812 118.421 6.534C119.891 3.017 124.313 0 128 0C131.687 0 136.109 3.017 137.579 6.534C138.531 8.812 139 13.777 139 21.567C139 35.049 137.726 38.953 132.522 41.423C128.421 43.369 127.331 43.364 123.321 41.387" />
    <glyph glyph-name="cloud-lightning"
      unicode="&#xEA3D;"
      horiz-adv-x="256" d="M82.583 254.893C57.29 251.204 33.671 237.076 18.941 216.824C12.824 208.414 5.654 193.872 3.496 185.5C0.542 174.04 -0.47 160.86 0.791 150.25C1.428 144.888 2.635 137.8 3.474 134.5C5.739 125.592 15.109 107.406 21.257 99.987C31.507 87.616 48.182 75.008 54.3 75.003C63.086 74.995 68.135 84.745 62.834 91.484C61.643 92.998 58.156 95.833 55.084 97.783C48.15 102.186 37.887 112.611 32.864 120.354C25.191 132.182 20.443 150.231 21.384 164C24.145 204.407 56.111 234.346 96.5 234.353C109.273 234.356 116.795 232.638 127.413 227.295C147.584 217.145 159.988 203.341 166.594 183.693C170.3 172.671 172.564 171.002 183.827 170.992C201.107 170.977 211.474 167.616 221.522 158.772C227.084 153.876 232.593 142.896 233.964 133.972C237.153 113.223 223.592 92.545 203.194 87.052C200.844 86.42 197.477 84.611 195.711 83.033C192.997 80.608 192.5 79.468 192.5 75.663C192.5 66.972 198.979 63.509 209.576 66.534C229.796 72.308 246.792 89.015 253.282 109.5C256.1720000000001 118.622 256.304 136.357 253.55 145.5C249.548 158.782 241.18 170.925 230.712 178.637C219.029 187.245 210.236 190.432 194.929 191.609L186.494 192.257L184.094 197.696C166.592 237.352 124.589 261.02 82.583 254.893M132.519 146.836C131.006 145.647 119.921 129.882 107.884 111.804C88.423 82.573 86 78.488 86 74.902C86 69.829 87.274 67.427 90.98 65.51C93.337 64.291 98.349 64 116.961 64L140.02 64L123.864 39.797C105.357 12.071 104.485 9.846 109.804 3.893C112.387 1.003 113.492 0.5 117.264 0.5C119.729 0.5 122.496 1.165 123.504 2C125.978 4.049 168.959 68.584 170.177 72.078C170.915 74.195 170.746 75.732 169.484 78.392C166.578 84.516 166.845 84.456 140.364 85L116.031 85.5L132.515 110.299C148.82 134.827 149.906 137.027 148.43 142.519C147.671 145.344 141.97 149 138.323 149C136.644 149 134.032 148.026 132.519 146.836" />
    <glyph glyph-name="cloud-off"
      unicode="&#xEA3E;"
      horiz-adv-x="256" d="M8.816 255.483C8.468 255.135 7.468 254.745 6.595 254.617C5.107 254.398 0.249 250 1.496 250C1.812 250 1.585 249.093 0.992 247.985C-1.522 243.288 1.135 239.387 19.097 221.403L36.234 204.245L28.146 196.517C15.323 184.267 5.039 166.454 1.41 150.212C0.113 144.403 -0.121 139.226 0.259 124.712C0.779 104.881 1.993 99.268 8.8 85.242C19.304 63.595 40.167 45.31 63.481 37.317C77.457 32.526 85.291 32.006 142.5 32.079C171.65 32.116 197.975 32.51 201 32.955L206.5 33.765L223 17.538C240.067 0.754 243.42 -1.451 248.082 1.044C249.137 1.608 250 1.751 250 1.361C250 0.971 251.105 1.69 252.456 2.958C253.806 4.227 254.86 5.543 254.797 5.883C254.734 6.222 255.009 7.24 255.408 8.145C255.807 9.05 255.663 11.525 255.089 13.645C254.202 16.919 236.134 35.404 135.254 136.25C69.919 201.562 15.797 255.006 14.982 255.014C14.167 255.021 12.589 255.272 11.475 255.572C10.361 255.871 9.164 255.831 8.816 255.483M96.535 220.735C92.768 216.968 92.013 213.261 94.085 208.712C95.671 205.232 99.474 203.397 108.679 201.671C135.835 196.578 157.942 177.426 166.686 151.419C170.247 140.829 172.694 139.002 183.327 138.992C201.089 138.976 212.616 135.14 221.809 126.186C233.18 115.11 237.59 96.009 232.082 81.685C231.487 80.137 231 77.055 231 74.836C231 66.162 242.234 61.507 248.366 67.639C254.42 73.693 257.622 94.82 254.621 108.906C248.409 138.059 222.412 159.641 193 160.062L186.5 160.155L180.767 171.828C176.177 181.174 173.504 185.162 167.353 191.841C163.128 196.428 156.708 202.432 153.086 205.182C140.72 214.571 121.794 222.099 106.785 223.598C100.079 224.268 100.064 224.264 96.535 220.735M181.261 53.183C178.092 53.008 154.8 53.039 129.5 53.251C86.177 53.614 83.047 53.762 75.713 55.787C63.98 59.027 52.688 65.354 44.119 73.491C29.044 87.806 21.443 103.778 20.321 123.5C18.977 147.133 28.445 169.707 45.805 184.257L51.481 189.014L119.251 121.257L187.022 53.5L181.261 53.183" />
    <glyph glyph-name="cloud-rain"
      unicode="&#xEA3F;"
      horiz-adv-x="256" d="M82.583 254.893C57.29 251.204 33.671 237.076 18.941 216.824C2.478 194.189 -3.373 166.684 2.451 139.309C5.203 126.379 9.02 117.347 16.319 106.5C21.113 99.374 33.387 86.387 37.2 84.404C44.581 80.567 52.931 85.266 52.978 93.284C52.998 96.656 52.117 98.005 44.875 105.693C31.461 119.935 26.829 128.5 22.812 146.5C21.27 153.408 20.938 157.476 21.384 164C24.145 204.407 56.111 234.346 96.5 234.353C109.273 234.356 116.795 232.638 127.413 227.295C147.584 217.145 159.988 203.341 166.594 183.693C170.3 172.67 172.565 171.002 183.827 170.994C188.597 170.991 195.149 170.555 198.387 170.024C221.206 166.287 237.451 144.357 233.941 122.028C231.818 108.519 223.241 96.196 211.996 90.498C205.694 87.304 203 83.792 203 78.766C203 75.621 203.642 74.203 206.106 71.901C210.857 67.463 214.246 67.638 223.687 72.808C247.379 85.784 260.689 116.021 254.128 141.964C251.369 152.877 247.442 161.017 241.339 168.477C229.573 182.86 210.652 191.783 191.5 191.982L186.5 192.034L184.097 197.584C166.98 237.115 124.627 261.025 82.583 254.893M80.11 126.604C75.081 123.817 75.073 123.734 75.035 74.327L75 28.153L77.527 25.15C80.7 21.38 84.708 20.434 89.33 22.365C96.064 25.178 96 24.667 96 75.55L96 121.2L92.6 124.6C88.864 128.336 84.499 129.037 80.11 126.604M163.4 124.6L160 121.2L160 75.55C160 24.667 159.936 25.178 166.67 22.365C171.292 20.434 175.3 21.38 178.473 25.15L181 28.153L181 74.03C181 123.304 180.937 123.947 175.855 126.575C171.138 129.014 167.188 128.388 163.4 124.6M123.321 105.387C117.053 102.296 117 101.858 117 53.567C117 5.637 117.124 4.539 122.872 1.566C124.538 0.705 126.845 0 128 0C129.155 0 131.462 0.705 133.128 1.566C138.876 4.539 139 5.637 139 53.567C139 102.066 138.962 102.366 132.522 105.423C128.421 107.369 127.331 107.364 123.321 105.387" />
    <glyph glyph-name="cloud-snow"
      unicode="&#xEA40;"
      horiz-adv-x="256" d="M79.5 243.837C53.69 238.991 31.187 224.464 17.014 203.5C5.001 185.729 0.488 170.434 0.641 148C0.717 136.837 1.178 132.854 3.301 124.989C8.207 106.82 15.126 94.712 27.713 82.268C36.438 73.644 39.97 71.584 44.561 72.446C48.907 73.261 53 78.102 53 82.427C53 85.952 48.483 93.136 45.141 94.924C42.183 96.508 33.558 107.983 29.579 115.631C24.04 126.276 21.691 136.446 21.637 150C21.586 162.973 23.569 171.273 29.511 182.957C33.676 191.147 36.41 194.815 44.45 203C54.916 213.654 68.153 220.186 85 223.01C120.13 228.899 155.502 206.824 166.91 171.892C170.366 161.312 171.581 160.615 187.828 159.89C203.908 159.172 209.385 157.476 218.312 150.449C231.672 139.931 237.6 121.367 232.723 105.318C229.65 95.204 221.008 84.595 212.171 80.087C201.619 74.704 199.784 63.669 208.684 59.117C212.108 57.366 215.033 57.775 221.5 60.91C236.624 68.241 247.972 82.242 253.59 100.5C256.389 109.596 256.123 127.351 253.058 136C248.92 147.677 244.881 154.148 236.514 162.5C224.215 174.777 209.844 180.951 193.483 180.985L186.465 181L183.984 187.25C176.703 205.59 157.736 225.594 138.5 235.22C122.015 243.47 96.998 247.123 79.5 243.837M80.11 94.604C76.882 92.815 75.078 89.285 75.035 84.673C74.938 74.172 90.004 71.144 94.883 80.684C97.021 84.865 96.235 88.965 92.6 92.6C88.864 96.336 84.499 97.037 80.11 94.604M163.4 92.6C156.143 85.343 160.976 75 171.624 75C181.859 75 184.664 90.102 175.316 94.883C171.135 97.021 167.035 96.235 163.4 92.6M123.321 73.427C119.402 71.445 116.621 66.003 117.494 62.026C117.842 60.442 119.256 58.017 120.636 56.636C128.567 48.705 141.287 56.423 138.056 67.206C136.173 73.492 129.238 76.42 123.321 73.427M77.923 50.077C73.096 45.25 74.505 35.913 80.472 33.195C85.203 31.039 88.914 31.714 92.6 35.4C99.619 42.419 95.179 52.926 85.173 52.978C81.707 52.996 80.265 52.418 77.923 50.077M165.11 51.604C161.988 49.874 160.08 46.318 160.035 42.15C159.987 37.578 165.444 32 169.966 32C176.617 32 180.944 36.255 180.978 42.827C181.02 50.981 172.494 55.697 165.11 51.604M122.353 30.074C118.782 27.896 116.565 22.582 117.565 18.598C117.924 17.166 119.554 14.87 121.186 13.497C130.23 5.887 143.28 16.81 137.047 26.775C133.706 32.117 127.857 33.43 122.353 30.074" />
    <glyph glyph-name="code"
      unicode="&#xEA41;"
      horiz-adv-x="256" d="M81.5 201.541C79.85 200.808 63.313 184.958 44.75 166.32L11 132.432L11 128L11 123.568L44.75 89.679C63.312 71.04 79.85 55.203 81.5 54.486C89.229 51.127 97.586 58.426 95.541 66.75C95.102 68.541 84.694 79.704 65.698 98.758L36.529 128.016L65.159 156.758C80.906 172.566 94.287 186.483 94.895 187.684C99.088 195.97 90.037 205.333 81.5 201.541M167.212 201.871C161.614 200.257 158.456 192.92 161.105 187.684C161.713 186.483 175.094 172.566 190.841 156.758L219.471 128.016L190.302 98.758C171.306 79.704 160.898 68.541 160.459 66.75C158.414 58.426 166.771 51.127 174.5 54.486C176.15 55.203 192.688 71.04 211.25 89.679L245 123.568L245 128L245 132.432L211.25 166.321C183.001 194.687 173.09 203.648 170.782 202.91C170.627 202.86 169.02 202.393 167.212 201.871" />
    <glyph glyph-name="codepen"
      unicode="&#xEA42;"
      horiz-adv-x="256" d="M120.545 242.718C118.92 241.498 94.845 225.813 67.045 207.863C39.245 189.912 15.262 174.078 13.75 172.676L11 170.128L11 128L11 85.872L13.75 83.325C15.262 81.925 37.425 67.289 63 50.802C88.575 34.315 112.776 18.614 116.78 15.913C126.594 9.29 129.406 9.29 139.22 15.913C143.224 18.614 167.425 34.315 193 50.802C218.575 67.289 240.738 81.925 242.25 83.325L245 85.872L245 128L245 170.128L242.25 172.675C240.738 174.075 218.575 188.711 193 205.198C167.425 221.685 143.224 237.386 139.22 240.087C130.711 245.83 125.641 246.544 120.545 242.718M117 192.722L117 170.444L96.578 156.248C85.346 148.44 75.715 141.928 75.174 141.776C74.189 141.499 41.012 164.062 41.026 165C41.032 165.377 115.494 214.455 116.75 214.909C116.888 214.959 117 204.975 117 192.722M214.731 164.81C214.376 163.749 182.643 141.697 181.449 141.681C180.871 141.673 171.084 148.142 159.699 156.055L139 170.444L139 192.667L139 214.89L176.981 190.195C197.871 176.613 214.859 165.189 214.731 164.81M145.046 140.468C154.096 134.125 161.5 128.515 161.5 128C161.5 127.111 129.241 104 128 104C126.759 104 94.5 127.111 94.5 128C94.5 128.889 126.759 152 128 152C128.325 152 135.996 146.811 145.046 140.468M44.044 136.425C50.07 132.259 55 128.467 55 128C55 127.19 33.681 112 32.544 112C32.245 112 32 119.2 32 128C32 136.8 32.245 144 32.544 144C32.844 144 38.019 140.591 44.044 136.425M224 128C224 119.2 223.755 112 223.456 112C221.976 112 200.951 127.353 201.241 128.222C201.597 129.292 221.98 143.854 223.25 143.946C223.662 143.976 224 136.8 224 128M98.36 98.539L117 85.578L117 63.361L117 41.145L79.03 65.822C58.146 79.395 41.052 90.725 41.042 91C41.033 91.275 48.557 96.754 57.763 103.175C74.483 114.838 74.503 114.849 77.11 113.175C78.546 112.254 88.108 105.668 98.36 98.539M198.942 102.762C207.499 96.777 214.598 91.57 214.718 91.19C214.838 90.811 197.85 79.395 176.968 65.822L139 41.145L139 63.357L139 85.569L160.15 100.251C171.782 108.326 181.768 114.643 182.342 114.289C182.915 113.934 190.385 108.748 198.942 102.762" />
    <glyph glyph-name="codesandbox"
      unicode="&#xEA43;"
      horiz-adv-x="256" d="M118.744 243.999C116.508 243.326 86.881 227.206 74.5 219.925C72.85 218.955 63.4 213.545 53.5 207.904C32.732 196.069 26.415 190.616 23.383 181.909C21.638 176.897 21.5 172.904 21.5 127.479L21.5 78.458L24.792 71.771C26.671 67.955 29.741 63.671 31.944 61.792C35.249 58.973 57.218 45.871 78.382 34.096C81.747 32.224 91.747 26.574 100.605 21.541C124.055 8.216 129.717 7.434 144.5 15.478C178.45 33.953 221.304 58.947 224.809 62.318C226.628 64.068 229.553 68.415 231.309 71.978L234.5 78.457L234.5 127.478C234.5 184.391 234.611 183.58 225.583 192.468C221.16 196.822 200.253 209.736 179.901 220.685C177.667 221.887 167.84 227.413 158.064 232.964C148.288 238.515 138.765 243.494 136.901 244.028C132.875 245.183 122.625 245.166 118.744 243.999M142.305 217.384C148.799 213.75 153.974 210.642 153.805 210.476C152.875 209.559 128.676 196 127.969 196C127.362 196 104.407 208.918 102.268 210.463C101.427 211.071 125.995 223.98 128 223.985C129.375 223.987 135.812 221.017 142.305 217.384M103.5 185.152C119.442 175.93 125.343 173.005 128 173.006C130.66 173.007 136.765 176.048 153.433 185.673L175.365 198.339L182.433 194.478C186.32 192.354 192.362 188.958 195.86 186.931L202.219 183.245L193.86 178.327C164.383 160.985 129.138 141 128.032 141C126.159 141 54.957 182.347 55.257 183.261C55.725 184.683 79.493 197.94 81 197.619C81.825 197.443 91.95 191.833 103.5 185.152M79.381 143.837C98.697 132.747 115.067 123.163 115.761 122.54C116.746 121.655 116.965 112.169 116.761 79.227L116.5 37.046L103.755 44.273L91.011 51.5L91.005 76.516C91.001 98.748 90.798 101.907 89.188 104.909C87.712 107.662 83.32 110.628 65.438 120.944L43.5 133.601L43.224 148.801C43.072 157.16 43.244 164 43.605 164C43.967 164 60.066 154.927 79.381 143.837M212.776 148.801L212.5 133.601L190.562 120.944C172.68 110.628 168.288 107.662 166.812 104.909C165.202 101.907 164.999 98.746 164.993 76.516L164.987 51.5L158.243 47.772C154.534 45.721 148.683 42.43 145.239 40.458L138.978 36.872L139.239 79.615L139.5 122.357L175.5 143.15C195.3 154.585 211.849 163.955 212.276 163.971C212.703 163.987 212.928 157.16 212.776 148.801M61.739 98.613L68.979 94.5L68.989 79.168L69 63.837L65.75 65.796C63.962 66.873 58.784 69.876 54.242 72.469C49.701 75.062 45.313 78.143 44.492 79.314C43.343 80.955 43 84.637 43 95.318L43 109.191L48.75 105.958C51.913 104.18 57.758 100.875 61.739 98.613M211.654 79.619C210.453 77.807 189.4 65 187.622 65C187.28 65 187.002 71.637 187.005 79.75L187.011 94.5L199.755 101.728L212.5 108.956L212.779 95.347C212.992 84.964 212.725 81.235 211.654 79.619" />
    <glyph glyph-name="coffee"
      unicode="&#xEA44;"
      horiz-adv-x="256" d="M58.304 254.044C53.529 251.132 52.8 247.242 53.175 226.666L53.5 208.831L56.766 205.916C59.21 203.733 61.029 203 64 203C66.971 203 68.79 203.733 71.234 205.916L74.5 208.831L74.825 226.666C75.031 237.967 74.736 245.891 74.021 248.298C72.773 252.494 68.216 255.993 64 255.993C62.625 255.993 60.062 255.116 58.304 254.044M99.4 252.6L96 249.2L96 230.05C96 209.192 96.587 206.421 101.472 204.195C106.164 202.057 110.854 202.7 114.077 205.923L117 208.846L117 228.376C117 249.56 116.485 252.181 111.855 254.575C107.138 257.014 103.188 256.388 99.4 252.6M144.11 254.604C139.505 252.052 139.073 249.845 139.035 228.673L139 208.846L141.923 205.923C145.146 202.7 149.836 202.057 154.528 204.195C159.413 206.421 160 209.192 160 230.05L160 249.2L156.6 252.6C152.864 256.336 148.499 257.037 144.11 254.604M14.126 178.118L11 175.198L11.012 120.849C11.021 76.941 11.298 65.469 12.453 61.131C16.304 46.661 26.895 33.716 40.243 27.166C51.828 21.48 56.99 21 106.5 21C154.585 21 161.215 21.563 171.841 26.545C186.473 33.407 199.729 50.245 201.445 64.151C202.811 75.21 202.454 74.672 208.8 75.258C228.178 77.049 245.972 91.207 253.281 110.652C256.406 118.968 256.388 136.851 253.245 145.348C247.647 160.484 235.654 172.521 220.461 178.252L214.5 180.5L115.876 180.769L17.252 181.038L14.126 178.118M180.999 113.75L180.998 67.5L178.118 61.5C174.573 54.117 169.272 48.914 161.834 45.517L156.167 42.93L105.334 43.215L54.5 43.5L50 45.863C43.538 49.256 36.478 57.107 34.049 63.599C32.094 68.824 32 71.163 32 114.538L32 160L106.5 160L181 160L180.999 113.75M216.764 156.62C236.279 146.73 240.392 120.118 224.698 105.275C219.415 100.28 210.54 96 205.462 96L203 96L203 128.136L203 160.272L207.494 159.656C209.965 159.317 214.137 157.951 216.764 156.62" />
    <glyph glyph-name="columns"
      unicode="&#xEA45;"
      horiz-adv-x="256" d="M47.223 233.955C37.185 231.937 28.518 224.717 23.769 214.42L21.5 209.5L21.5 128L21.5 46.5L24.614 39.928C28.075 32.625 33.423 27.531 41.58 23.769L46.5 21.5L128 21.5L209.5 21.5L214.42 23.769C222.429 27.462 227.551 32.342 231.2 39.755L234.5 46.458L234.5 127.979L234.5 209.5L232.231 214.42C228.469 222.577 223.375 227.925 216.072 231.386L209.5 234.5L130.5 234.658C87.05 234.744 49.575 234.428 47.223 233.955M117 128L117 43L82.901 43L48.802 43L45.901 46.106L43 49.212L43 128.205L43 207.198L46.106 210.099L49.212 213L83.106 213L117 213L117 128M209.923 209.923L213 206.846L213 128.029L213 49.212L210.099 46.106L207.198 43L173.099 43L139 43L139 128L139 213L172.923 213L206.846 213L209.923 209.923" />
    <glyph glyph-name="command"
      unicode="&#xEA46;"
      horiz-adv-x="256" d="M56.715 233.994C44.996 231.941 32.607 223.147 26.803 212.763C17.473 196.069 20.599 175.132 34.444 161.589C43.826 152.411 54.565 149.016 74.25 149.006L85 149L85 128L85 107L74.25 106.994C68.338 106.991 60.851 106.555 57.613 106.024C36.653 102.592 21.594 85.022 21.594 64C21.594 43.014 36.621 25.472 57.613 21.953C75.448 18.963 94.391 28.927 102.071 45.338C105.769 53.241 106.987 60.391 106.994 74.25L107 85L127.864 85L148.728 85L149.295 70.25C149.607 62.13 150.467 53.702 151.208 51.5C156.464 35.889 169.557 24.644 185.613 21.953C203.448 18.963 222.391 28.927 230.071 45.338C238.142 62.585 235.195 80.453 222.055 93.943C212.968 103.273 205.345 105.953 185.75 106.705L171 107.272L171 128L171 148.728L185.75 149.295C205.333 150.047 212.188 152.443 221.945 161.946C235.274 174.929 238.339 196.406 229.197 212.763C215.543 237.192 181.345 241.861 161.946 221.945C152.443 212.188 150.047 205.333 149.295 185.75L148.728 171L128 171L107.272 171L106.705 185.75C105.956 205.254 103.546 212.199 94.197 221.798C84.604 231.646 70.153 236.349 56.715 233.994M71.685 211.94C75.534 210.492 81.846 204.221 83.575 200.128C84.56 197.798 85 192.777 85 183.878L85 171L72.122 171C63.223 171 58.202 171.44 55.872 172.425C51.779 174.154 45.508 180.466 44.06 184.315C42.563 188.29 42.745 196.152 44.425 200.128C46.081 204.049 52.387 210.453 56 211.883C59.366 213.216 68.211 213.248 71.685 211.94M199.685 211.94C203.534 210.492 209.846 204.221 211.575 200.128C213.255 196.152 213.437 188.29 211.94 184.315C210.492 180.466 204.221 174.154 200.128 172.425C197.798 171.44 192.777 171 183.878 171L171 171L171 183.878C171 192.777 171.44 197.798 172.425 200.128C174.081 204.049 180.387 210.453 184 211.883C187.366 213.216 196.211 213.248 199.685 211.94M149 128L149 107L128 107L107 107L107 128L107 149L128 149L149 149L149 128M85 72.065C85 64.951 84.523 57.863 83.94 56.315C82.492 52.466 76.221 46.154 72.128 44.425C70.273 43.641 66.616 43 64 43C61.384 43 57.727 43.641 55.872 44.425C51.779 46.154 45.508 52.466 44.06 56.315C42.563 60.29 42.745 68.152 44.425 72.128C46.081 76.049 52.387 82.453 56 83.883C57.375 84.428 64.463 84.902 71.75 84.937L85 85L85 72.065M199.685 83.94C203.534 82.492 209.846 76.221 211.575 72.128C213.255 68.152 213.437 60.29 211.94 56.315C210.492 52.466 204.221 46.154 200.128 44.425C195.808 42.599 188.192 42.599 183.872 44.425C179.779 46.154 173.508 52.466 172.06 56.315C171.477 57.863 171 64.951 171 72.065L171 85L183.935 85C191.049 85 198.137 84.523 199.685 83.94" />
    <glyph glyph-name="compass"
      unicode="&#xEA47;"
      horiz-adv-x="256" d="M105 242.978C49.546 231.09 11 183.942 11 128C11 78.191 41.952 34.358 89 17.538C113.657 8.724 142.343 8.724 167 17.538C214.048 34.358 245 78.191 245 128C245 184.343 206.09 231.544 150.14 243.071C137.824 245.609 117.073 245.566 105 242.978M140.549 222.93C154.599 220.976 170.711 214.965 181.5 207.654C189.33 202.348 202.621 189.08 207.7 181.5C219.565 163.792 225.654 138.967 223.221 118.225C221.385 102.577 215.608 86.302 207.7 74.5C202.621 66.92 189.33 53.652 181.5 48.346C169.833 40.439 153.498 34.624 137.775 32.779C117.033 30.346 92.208 36.435 74.5 48.3C66.92 53.379 53.652 66.67 48.346 74.5C36.486 92.001 30.34 116.983 32.779 137.775C34.624 153.498 40.439 169.833 48.346 181.5C53.652 189.33 66.92 202.621 74.5 207.7C93.19 220.223 118.331 226.02 140.549 222.93M170 183.115C159.116 180.29 99.127 159.71 97.749 158.327C96.787 157.361 90.549 140.17 83.889 120.125C72.416 85.597 71.84 83.478 72.931 79.836C74.391 74.963 78.096 72.452 83.445 72.709C88.49 72.952 155.59 95.319 158.107 97.597C159.894 99.214 184 169.764 184 173.378C184 176.717 180.838 181.17 177.466 182.579C173.829 184.098 173.799 184.1 170 183.115M155.754 154.75C155.501 154.062 152.474 144.95 149.027 134.5C145.581 124.05 142.252 114.992 141.63 114.372C140.488 113.231 100.892 99.774 100.331 100.336C99.948 100.719 112.633 138.993 113.788 140.94C114.467 142.084 152.007 155.613 155.357 155.921C155.828 155.965 156.007 155.437 155.754 154.75" />
    <glyph glyph-name="copy"
      unicode="&#xEA48;"
      horiz-adv-x="256" d="M29.5 242.131C22.117 238.57 16.911 233.265 13.528 225.857L10.951 220.213L11.226 164.357L11.5 108.5L13.813 103.805C16.553 98.241 22.953 91.575 28.051 88.974C36.269 84.781 53.861 83.897 59.219 87.408C64.085 90.596 65.244 96.447 62.048 101.689C59.731 105.489 55.286 106.986 46.297 106.994C38.595 107.001 35.541 108.34 33.522 112.596C32.141 115.506 31.981 122.195 32.223 166.935L32.5 217.956L35.272 220.728L38.044 223.5L89.065 223.777C133.805 224.019 140.494 223.859 143.404 222.478C147.66 220.459 148.999 217.405 149.006 209.703C149.014 200.714 150.511 196.269 154.311 193.952C158.35 191.489 161.65 191.489 165.689 193.952C169.277 196.14 170.985 200.684 170.994 208.066C171.002 214.52 169.138 223.809 166.99 228.02C164.422 233.053 157.731 239.461 152.195 242.187L147.5 244.5L91.5 244.762L35.5 245.025L29.5 242.131M111.223 169.963C101.169 167.923 92.516 160.713 87.769 150.42L85.5 145.5L85.5 91.5C85.5 51.453 85.82 36.451 86.737 33.441C88.559 27.464 93.324 20.824 98.417 17.167C107.17 10.881 105.876 10.999 165.876 11.01L220.5 11.02L226 13.569C233.311 16.957 238.611 22.195 242.118 29.5L244.998 35.5L244.999 90.124C245 150.059 245.111 148.842 238.884 157.512C235.279 162.532 230.076 166.443 223.805 168.846C220.026 170.294 213.144 170.516 167.5 170.663C138.9 170.755 113.575 170.44 111.223 169.963M219.011 147.494C220.953 146.49 222.287 144.741 223.016 142.244C223.761 139.692 224.012 122.509 223.804 88.272L223.5 38.044L220.728 35.272L217.956 32.5L167.728 32.196C133.491 31.988 116.308 32.239 113.756 32.984C106.848 35 107 33.683 107 91.549L107 143.198L110.106 146.099L113.212 149L164.655 149C208.516 149 216.529 148.778 219.011 147.494" />
    <glyph glyph-name="corner-down-left"
      unicode="&#xEA49;"
      horiz-adv-x="256" d="M207.826 222.344C206.355 221.401 204.668 219.566 204.076 218.267C203.368 216.713 203 202.821 203 177.637C203 154.398 202.573 137.037 201.913 133.434C200.389 125.11 196.466 118.417 190.449 113.873C181.106 106.82 182.882 107 122.634 107L68.52 107L86.712 125.25C96.717 135.287 105.33 144.648 105.851 146.051C108.64 153.555 101.233 161.489 93.25 159.548C91.45 159.111 80.396 148.79 61.25 129.671L32 100.462L32 96.022L32 91.581L60.25 63.218C75.787 47.618 89.715 34.213 91.2 33.427C94.869 31.488 97.896 31.639 101.689 33.952C105.504 36.278 107.428 41.713 105.895 45.835C105.349 47.301 96.717 56.712 86.712 66.75L68.52 85L120.51 85.035C177.022 85.073 182.855 85.507 193.325 90.46C205.942 96.43 217.029 108.76 221.19 121.452C223.464 128.39 223.5 129.198 223.5 173.227L223.5 217.955L220.903 220.552C217.554 223.9 211.538 224.725 207.826 222.344" />
    <glyph glyph-name="corner-down-right"
      unicode="&#xEA4A;"
      horiz-adv-x="256" d="M38.5 223.055C37.4 222.604 35.6 221.236 34.5 220.013C32.562 217.859 32.5 216.382 32.5 172.645C32.5 127.813 32.516 127.455 34.843 121C40.288 105.895 52.978 93.577 69 87.845C75.463 85.532 75.816 85.517 131.429 85.198L187.357 84.877L169.227 66.689C159.255 56.685 150.651 47.301 150.105 45.835C148.572 41.713 150.496 36.278 154.311 33.952C158.104 31.639 161.131 31.488 164.8 33.427C166.285 34.213 180.213 47.618 195.75 63.218L224 91.581L224 96.022L224 100.462L194.75 129.671C175.604 148.79 164.55 159.111 162.75 159.548C154.767 161.489 147.36 153.555 150.149 146.051C150.67 144.648 159.287 135.279 169.298 125.23L187.5 106.96L132 107.23L76.5 107.5L71.805 109.813C66.269 112.539 59.578 118.947 57.01 123.98C53.564 130.735 53 138.364 53 178.219C53 221.045 53.042 220.744 46.785 222.925C43.22 224.168 41.294 224.198 38.5 223.055" />
    <glyph glyph-name="corner-left-down"
      unicode="&#xEA4B;"
      horiz-adv-x="256" d="M128.5 223.301C116.082 220.212 105.581 213.947 98.448 205.371C92.95 198.761 90.589 194.67 87.845 187C85.532 180.537 85.517 180.184 85.198 124.571L84.877 68.643L66.689 86.773C56.685 96.745 47.352 105.33 45.949 105.851C38.445 108.64 30.511 101.233 32.452 93.25C32.889 91.45 43.21 80.396 62.329 61.25L91.538 32L95.978 32L100.419 32L128.782 60.25C144.382 75.788 157.787 89.715 158.573 91.2C160.512 94.869 160.361 97.896 158.048 101.689C155.722 105.504 150.287 107.428 146.165 105.895C144.699 105.349 135.279 96.713 125.23 86.702L106.96 68.5L107.23 124L107.5 179.5L109.813 184.195C112.539 189.731 118.947 196.422 123.98 198.99C130.721 202.429 138.376 203 177.733 203C220.558 203 220.87 203.045 222.995 209.486C224.487 214.006 223.557 218.128 220.368 221.124L217.841 223.5L174.17 223.649C150.152 223.731 129.6 223.574 128.5 223.301" />
    </font>
</defs>
</svg>
